<?xml version="1.0" encoding="utf-8" standalone="no"?>
<!DOCTYPE svg PUBLIC "-//W3C//DTD SVG 1.1//EN" "http://www.w3.org/Graphics/SVG/1.1/DTD/svg11.dtd">
<svg width="2500" height="400" version="1.1" xmlns:xlink="http://www.w3.org/1999/xlink" xmlns="http://www.w3.org/2000/svg">
  <polyline points="34.0778,370.947 34.0778,374.947" style="fill:none;stroke:black;stroke-width:1" />
  <polyline points="77.4302,370.947 77.4302,374.947" style="fill:none;stroke:black;stroke-width:1" />
  <polyline points="99.1064,370.947 99.1064,374.947" style="fill:none;stroke:black;stroke-width:1" />
  <polyline points="120.7825,370.947 120.7825,374.947" style="fill:none;stroke:black;stroke-width:1" />
  <polyline points="142.4587,370.947 142.4587,374.947" style="fill:none;stroke:black;stroke-width:1" />
  <polyline points="185.8111,370.947 185.8111,374.947" style="fill:none;stroke:black;stroke-width:1" />
  <polyline points="207.4873,370.947 207.4873,374.947" style="fill:none;stroke:black;stroke-width:1" />
  <polyline points="229.1635,370.947 229.1635,374.947" style="fill:none;stroke:black;stroke-width:1" />
  <polyline points="250.8397,370.947 250.8397,374.947" style="fill:none;stroke:black;stroke-width:1" />
  <polyline points="294.192,370.947 294.192,374.947" style="fill:none;stroke:black;stroke-width:1" />
  <polyline points="315.8682,370.947 315.8682,374.947" style="fill:none;stroke:black;stroke-width:1" />
  <polyline points="337.5444,370.947 337.5444,374.947" style="fill:none;stroke:black;stroke-width:1" />
  <polyline points="359.2206,370.947 359.2206,374.947" style="fill:none;stroke:black;stroke-width:1" />
  <polyline points="402.573,370.947 402.573,374.947" style="fill:none;stroke:black;stroke-width:1" />
  <polyline points="424.2491,370.947 424.2491,374.947" style="fill:none;stroke:black;stroke-width:1" />
  <polyline points="445.9253,370.947 445.9253,374.947" style="fill:none;stroke:black;stroke-width:1" />
  <polyline points="467.6015,370.947 467.6015,374.947" style="fill:none;stroke:black;stroke-width:1" />
  <polyline points="510.9539,370.947 510.9539,374.947" style="fill:none;stroke:black;stroke-width:1" />
  <polyline points="532.6301,370.947 532.6301,374.947" style="fill:none;stroke:black;stroke-width:1" />
  <polyline points="554.3062,370.947 554.3062,374.947" style="fill:none;stroke:black;stroke-width:1" />
  <polyline points="575.9824,370.947 575.9824,374.947" style="fill:none;stroke:black;stroke-width:1" />
  <polyline points="619.3348,370.947 619.3348,374.947" style="fill:none;stroke:black;stroke-width:1" />
  <polyline points="641.011,370.947 641.011,374.947" style="fill:none;stroke:black;stroke-width:1" />
  <polyline points="662.6872,370.947 662.6872,374.947" style="fill:none;stroke:black;stroke-width:1" />
  <polyline points="684.3634,370.947 684.3634,374.947" style="fill:none;stroke:black;stroke-width:1" />
  <polyline points="727.7157,370.947 727.7157,374.947" style="fill:none;stroke:black;stroke-width:1" />
  <polyline points="749.3919,370.947 749.3919,374.947" style="fill:none;stroke:black;stroke-width:1" />
  <polyline points="771.0681,370.947 771.0681,374.947" style="fill:none;stroke:black;stroke-width:1" />
  <polyline points="792.7443,370.947 792.7443,374.947" style="fill:none;stroke:black;stroke-width:1" />
  <polyline points="836.0966,370.947 836.0966,374.947" style="fill:none;stroke:black;stroke-width:1" />
  <polyline points="857.7728,370.947 857.7728,374.947" style="fill:none;stroke:black;stroke-width:1" />
  <polyline points="879.449,370.947 879.449,374.947" style="fill:none;stroke:black;stroke-width:1" />
  <polyline points="901.1252,370.947 901.1252,374.947" style="fill:none;stroke:black;stroke-width:1" />
  <polyline points="944.4776,370.947 944.4776,374.947" style="fill:none;stroke:black;stroke-width:1" />
  <polyline points="966.1538,370.947 966.1538,374.947" style="fill:none;stroke:black;stroke-width:1" />
  <polyline points="987.8299,370.947 987.8299,374.947" style="fill:none;stroke:black;stroke-width:1" />
  <polyline points="1009.5061,370.947 1009.5061,374.947" style="fill:none;stroke:black;stroke-width:1" />
  <polyline points="1052.8585,370.947 1052.8585,374.947" style="fill:none;stroke:black;stroke-width:1" />
  <polyline points="1074.5347,370.947 1074.5347,374.947" style="fill:none;stroke:black;stroke-width:1" />
  <polyline points="1096.2109,370.947 1096.2109,374.947" style="fill:none;stroke:black;stroke-width:1" />
  <polyline points="1117.887,370.947 1117.887,374.947" style="fill:none;stroke:black;stroke-width:1" />
  <polyline points="1161.2394,370.947 1161.2394,374.947" style="fill:none;stroke:black;stroke-width:1" />
  <polyline points="1182.9156,370.947 1182.9156,374.947" style="fill:none;stroke:black;stroke-width:1" />
  <polyline points="1204.5918,370.947 1204.5918,374.947" style="fill:none;stroke:black;stroke-width:1" />
  <polyline points="1226.268,370.947 1226.268,374.947" style="fill:none;stroke:black;stroke-width:1" />
  <polyline points="1269.6203,370.947 1269.6203,374.947" style="fill:none;stroke:black;stroke-width:1" />
  <polyline points="1291.2965,370.947 1291.2965,374.947" style="fill:none;stroke:black;stroke-width:1" />
  <polyline points="1312.9727,370.947 1312.9727,374.947" style="fill:none;stroke:black;stroke-width:1" />
  <polyline points="1334.6489,370.947 1334.6489,374.947" style="fill:none;stroke:black;stroke-width:1" />
  <polyline points="1378.0013,370.947 1378.0013,374.947" style="fill:none;stroke:black;stroke-width:1" />
  <polyline points="1399.6774,370.947 1399.6774,374.947" style="fill:none;stroke:black;stroke-width:1" />
  <polyline points="1421.3536,370.947 1421.3536,374.947" style="fill:none;stroke:black;stroke-width:1" />
  <polyline points="1443.0298,370.947 1443.0298,374.947" style="fill:none;stroke:black;stroke-width:1" />
  <polyline points="1486.3822,370.947 1486.3822,374.947" style="fill:none;stroke:black;stroke-width:1" />
  <polyline points="1508.0584,370.947 1508.0584,374.947" style="fill:none;stroke:black;stroke-width:1" />
  <polyline points="1529.7346,370.947 1529.7346,374.947" style="fill:none;stroke:black;stroke-width:1" />
  <polyline points="1551.4107,370.947 1551.4107,374.947" style="fill:none;stroke:black;stroke-width:1" />
  <polyline points="1594.7631,370.947 1594.7631,374.947" style="fill:none;stroke:black;stroke-width:1" />
  <polyline points="1616.4393,370.947 1616.4393,374.947" style="fill:none;stroke:black;stroke-width:1" />
  <polyline points="1638.1155,370.947 1638.1155,374.947" style="fill:none;stroke:black;stroke-width:1" />
  <polyline points="1659.7917,370.947 1659.7917,374.947" style="fill:none;stroke:black;stroke-width:1" />
  <polyline points="1703.144,370.947 1703.144,374.947" style="fill:none;stroke:black;stroke-width:1" />
  <polyline points="1724.8202,370.947 1724.8202,374.947" style="fill:none;stroke:black;stroke-width:1" />
  <polyline points="1746.4964,370.947 1746.4964,374.947" style="fill:none;stroke:black;stroke-width:1" />
  <polyline points="1768.1726,370.947 1768.1726,374.947" style="fill:none;stroke:black;stroke-width:1" />
  <polyline points="1811.525,370.947 1811.525,374.947" style="fill:none;stroke:black;stroke-width:1" />
  <polyline points="1833.2011,370.947 1833.2011,374.947" style="fill:none;stroke:black;stroke-width:1" />
  <polyline points="1854.8773,370.947 1854.8773,374.947" style="fill:none;stroke:black;stroke-width:1" />
  <polyline points="1876.5535,370.947 1876.5535,374.947" style="fill:none;stroke:black;stroke-width:1" />
  <polyline points="1919.9059,370.947 1919.9059,374.947" style="fill:none;stroke:black;stroke-width:1" />
  <polyline points="1941.5821,370.947 1941.5821,374.947" style="fill:none;stroke:black;stroke-width:1" />
  <polyline points="1963.2582,370.947 1963.2582,374.947" style="fill:none;stroke:black;stroke-width:1" />
  <polyline points="1984.9344,370.947 1984.9344,374.947" style="fill:none;stroke:black;stroke-width:1" />
  <polyline points="2028.2868,370.947 2028.2868,374.947" style="fill:none;stroke:black;stroke-width:1" />
  <polyline points="2049.963,370.947 2049.963,374.947" style="fill:none;stroke:black;stroke-width:1" />
  <polyline points="2071.6392,370.947 2071.6392,374.947" style="fill:none;stroke:black;stroke-width:1" />
  <polyline points="2093.3154,370.947 2093.3154,374.947" style="fill:none;stroke:black;stroke-width:1" />
  <polyline points="2136.6677,370.947 2136.6677,374.947" style="fill:none;stroke:black;stroke-width:1" />
  <polyline points="2158.3439,370.947 2158.3439,374.947" style="fill:none;stroke:black;stroke-width:1" />
  <polyline points="2180.0201,370.947 2180.0201,374.947" style="fill:none;stroke:black;stroke-width:1" />
  <polyline points="2201.6963,370.947 2201.6963,374.947" style="fill:none;stroke:black;stroke-width:1" />
  <polyline points="2245.0486,370.947 2245.0486,374.947" style="fill:none;stroke:black;stroke-width:1" />
  <polyline points="2266.7248,370.947 2266.7248,374.947" style="fill:none;stroke:black;stroke-width:1" />
  <polyline points="2288.401,370.947 2288.401,374.947" style="fill:none;stroke:black;stroke-width:1" />
  <polyline points="2310.0772,370.947 2310.0772,374.947" style="fill:none;stroke:black;stroke-width:1" />
  <polyline points="2353.4296,370.947 2353.4296,374.947" style="fill:none;stroke:black;stroke-width:1" />
  <polyline points="2375.1058,370.947 2375.1058,374.947" style="fill:none;stroke:black;stroke-width:1" />
  <polyline points="2396.7819,370.947 2396.7819,374.947" style="fill:none;stroke:black;stroke-width:1" />
  <polyline points="2418.4581,370.947 2418.4581,374.947" style="fill:none;stroke:black;stroke-width:1" />
  <polyline points="2461.8105,370.947 2461.8105,374.947" style="fill:none;stroke:black;stroke-width:1" />
  <polyline points="2483.4867,370.947 2483.4867,374.947" style="fill:none;stroke:black;stroke-width:1" />
  <polyline points="31.501,357.917 27.501,357.917" style="fill:none;stroke:black;stroke-width:1" />
  <polyline points="31.501,339.8104 27.501,339.8104" style="fill:none;stroke:black;stroke-width:1" />
  <polyline points="31.501,303.5974 27.501,303.5974" style="fill:none;stroke:black;stroke-width:1" />
  <polyline points="31.501,285.4908 27.501,285.4908" style="fill:none;stroke:black;stroke-width:1" />
  <polyline points="31.501,267.3843 27.501,267.3843" style="fill:none;stroke:black;stroke-width:1" />
  <polyline points="31.501,249.2778 27.501,249.2778" style="fill:none;stroke:black;stroke-width:1" />
  <polyline points="31.501,213.0647 27.501,213.0647" style="fill:none;stroke:black;stroke-width:1" />
  <polyline points="31.501,194.9582 27.501,194.9582" style="fill:none;stroke:black;stroke-width:1" />
  <polyline points="31.501,176.8517 27.501,176.8517" style="fill:none;stroke:black;stroke-width:1" />
  <polyline points="31.501,158.7452 27.501,158.7452" style="fill:none;stroke:black;stroke-width:1" />
  <polyline points="31.501,122.5321 27.501,122.5321" style="fill:none;stroke:black;stroke-width:1" />
  <polyline points="31.501,104.4256 27.501,104.4256" style="fill:none;stroke:black;stroke-width:1" />
  <polyline points="31.501,86.319 27.501,86.319" style="fill:none;stroke:black;stroke-width:1" />
  <polyline points="31.501,68.2125 27.501,68.2125" style="fill:none;stroke:black;stroke-width:1" />
  <polyline points="31.501,31.9995 27.501,31.9995" style="fill:none;stroke:black;stroke-width:1" />
  <text dominant-baseline="hanging" text-anchor="middle" transform="translate(55.754,381.947)" font-family="Segoe UI" font-size="12" font-weight="400" fill="black">0</text>
  <text dominant-baseline="hanging" text-anchor="middle" transform="translate(164.1349,381.947)" font-family="Segoe UI" font-size="12" font-weight="400" fill="black">1000</text>
  <text dominant-baseline="hanging" text-anchor="middle" transform="translate(272.5158,381.947)" font-family="Segoe UI" font-size="12" font-weight="400" fill="black">2000</text>
  <text dominant-baseline="hanging" text-anchor="middle" transform="translate(380.8968,381.947)" font-family="Segoe UI" font-size="12" font-weight="400" fill="black">3000</text>
  <text dominant-baseline="hanging" text-anchor="middle" transform="translate(489.2777,381.947)" font-family="Segoe UI" font-size="12" font-weight="400" fill="black">4000</text>
  <text dominant-baseline="hanging" text-anchor="middle" transform="translate(597.6586,381.947)" font-family="Segoe UI" font-size="12" font-weight="400" fill="black">5000</text>
  <text dominant-baseline="hanging" text-anchor="middle" transform="translate(706.0395,381.947)" font-family="Segoe UI" font-size="12" font-weight="400" fill="black">6000</text>
  <text dominant-baseline="hanging" text-anchor="middle" transform="translate(814.4205,381.947)" font-family="Segoe UI" font-size="12" font-weight="400" fill="black">7000</text>
  <text dominant-baseline="hanging" text-anchor="middle" transform="translate(922.8014,381.947)" font-family="Segoe UI" font-size="12" font-weight="400" fill="black">8000</text>
  <text dominant-baseline="hanging" text-anchor="middle" transform="translate(1031.1823,381.947)" font-family="Segoe UI" font-size="12" font-weight="400" fill="black">9000</text>
  <text dominant-baseline="hanging" text-anchor="middle" transform="translate(1139.5632,381.947)" font-family="Segoe UI" font-size="12" font-weight="400" fill="black">10000</text>
  <text dominant-baseline="hanging" text-anchor="middle" transform="translate(1247.9442,381.947)" font-family="Segoe UI" font-size="12" font-weight="400" fill="black">11000</text>
  <text dominant-baseline="hanging" text-anchor="middle" transform="translate(1356.3251,381.947)" font-family="Segoe UI" font-size="12" font-weight="400" fill="black">12000</text>
  <text dominant-baseline="hanging" text-anchor="middle" transform="translate(1464.706,381.947)" font-family="Segoe UI" font-size="12" font-weight="400" fill="black">13000</text>
  <text dominant-baseline="hanging" text-anchor="middle" transform="translate(1573.0869,381.947)" font-family="Segoe UI" font-size="12" font-weight="400" fill="black">14000</text>
  <text dominant-baseline="hanging" text-anchor="middle" transform="translate(1681.4678,381.947)" font-family="Segoe UI" font-size="12" font-weight="400" fill="black">15000</text>
  <text dominant-baseline="hanging" text-anchor="middle" transform="translate(1789.8488,381.947)" font-family="Segoe UI" font-size="12" font-weight="400" fill="black">16000</text>
  <text dominant-baseline="hanging" text-anchor="middle" transform="translate(1898.2297,381.947)" font-family="Segoe UI" font-size="12" font-weight="400" fill="black">17000</text>
  <text dominant-baseline="hanging" text-anchor="middle" transform="translate(2006.6106,381.947)" font-family="Segoe UI" font-size="12" font-weight="400" fill="black">18000</text>
  <text dominant-baseline="hanging" text-anchor="middle" transform="translate(2114.9915,381.947)" font-family="Segoe UI" font-size="12" font-weight="400" fill="black">19000</text>
  <text dominant-baseline="hanging" text-anchor="middle" transform="translate(2223.3725,381.947)" font-family="Segoe UI" font-size="12" font-weight="400" fill="black">20000</text>
  <text dominant-baseline="hanging" text-anchor="middle" transform="translate(2331.7534,381.947)" font-family="Segoe UI" font-size="12" font-weight="400" fill="black">21000</text>
  <text dominant-baseline="hanging" text-anchor="middle" transform="translate(2440.1343,381.947)" font-family="Segoe UI" font-size="12" font-weight="400" fill="black">22000</text>
  <polyline points="55.754,370.947 55.754,377.947" style="fill:none;stroke:black;stroke-width:1" />
  <polyline points="164.1349,370.947 164.1349,377.947" style="fill:none;stroke:black;stroke-width:1" />
  <polyline points="272.5158,370.947 272.5158,377.947" style="fill:none;stroke:black;stroke-width:1" />
  <polyline points="380.8968,370.947 380.8968,377.947" style="fill:none;stroke:black;stroke-width:1" />
  <polyline points="489.2777,370.947 489.2777,377.947" style="fill:none;stroke:black;stroke-width:1" />
  <polyline points="597.6586,370.947 597.6586,377.947" style="fill:none;stroke:black;stroke-width:1" />
  <polyline points="706.0395,370.947 706.0395,377.947" style="fill:none;stroke:black;stroke-width:1" />
  <polyline points="814.4205,370.947 814.4205,377.947" style="fill:none;stroke:black;stroke-width:1" />
  <polyline points="922.8014,370.947 922.8014,377.947" style="fill:none;stroke:black;stroke-width:1" />
  <polyline points="1031.1823,370.947 1031.1823,377.947" style="fill:none;stroke:black;stroke-width:1" />
  <polyline points="1139.5632,370.947 1139.5632,377.947" style="fill:none;stroke:black;stroke-width:1" />
  <polyline points="1247.9442,370.947 1247.9442,377.947" style="fill:none;stroke:black;stroke-width:1" />
  <polyline points="1356.3251,370.947 1356.3251,377.947" style="fill:none;stroke:black;stroke-width:1" />
  <polyline points="1464.706,370.947 1464.706,377.947" style="fill:none;stroke:black;stroke-width:1" />
  <polyline points="1573.0869,370.947 1573.0869,377.947" style="fill:none;stroke:black;stroke-width:1" />
  <polyline points="1681.4678,370.947 1681.4678,377.947" style="fill:none;stroke:black;stroke-width:1" />
  <polyline points="1789.8488,370.947 1789.8488,377.947" style="fill:none;stroke:black;stroke-width:1" />
  <polyline points="1898.2297,370.947 1898.2297,377.947" style="fill:none;stroke:black;stroke-width:1" />
  <polyline points="2006.6106,370.947 2006.6106,377.947" style="fill:none;stroke:black;stroke-width:1" />
  <polyline points="2114.9915,370.947 2114.9915,377.947" style="fill:none;stroke:black;stroke-width:1" />
  <polyline points="2223.3725,370.947 2223.3725,377.947" style="fill:none;stroke:black;stroke-width:1" />
  <polyline points="2331.7534,370.947 2331.7534,377.947" style="fill:none;stroke:black;stroke-width:1" />
  <polyline points="2440.1343,370.947 2440.1343,377.947" style="fill:none;stroke:black;stroke-width:1" />
  <text dominant-baseline="middle" text-anchor="end" transform="translate(20.501,321.7039)" font-family="Segoe UI" font-size="12" font-weight="400" fill="black">0,5</text>
  <text dominant-baseline="middle" text-anchor="end" transform="translate(20.501,231.1713)" font-family="Segoe UI" font-size="12" font-weight="400" fill="black">1</text>
  <text dominant-baseline="middle" text-anchor="end" transform="translate(20.501,140.6386)" font-family="Segoe UI" font-size="12" font-weight="400" fill="black">1,5</text>
  <text dominant-baseline="middle" text-anchor="end" transform="translate(20.501,50.106)" font-family="Segoe UI" font-size="12" font-weight="400" fill="black">2</text>
  <polyline points="31.501,321.7039 24.501,321.7039" style="fill:none;stroke:black;stroke-width:1" />
  <polyline points="31.501,231.1713 24.501,231.1713" style="fill:none;stroke:black;stroke-width:1" />
  <polyline points="31.501,140.6386 24.501,140.6386" style="fill:none;stroke:black;stroke-width:1" />
  <polyline points="31.501,50.106 24.501,50.106" style="fill:none;stroke:black;stroke-width:1" />
  <polyline points="55.8624,32.4308 55.9708,32.8106 56.5127,34.704 56.621,35.0815 57.1629,36.9635 57.2713,37.3388 57.8132,39.2095 57.9216,39.5825 58.4635,41.4421 58.5719,41.8129 59.1138,43.6613 59.2222,44.0299 59.7641,45.8672 59.8725,46.2336 60.4144,48.06 60.5228,48.4241 61.0647,50.2396 61.173,50.6016 61.7149,52.4061 61.8233,52.766 62.3652,54.5597 62.4736,54.9174 63.0155,56.7004 63.1239,57.056 63.6658,58.8283 63.7742,59.1817 64.3161,60.9435 64.4245,61.2948 64.9664,63.046 65.0748,63.3952 65.6167,65.1359 65.725,65.483 66.2669,67.2133 66.3753,67.5583 66.9172,69.2782 67.0256,69.6212 67.5675,71.3309 67.6759,71.6718 68.2178,73.3712 68.3262,73.7101 68.8681,75.3993 68.9765,75.7361 69.5184,77.4153 69.6268,77.7501 70.1687,79.4192 70.277,79.752 70.8189,81.4111 70.9273,81.7419 71.4692,83.3911 71.5776,83.72 72.1195,85.3593 72.2279,85.6861 72.7698,87.3156 72.8782,87.6405 73.4201,89.2603 73.5285,89.5833 74.0704,91.1933 74.1788,91.5143 74.7207,93.1147 74.829,93.4339 75.3709,95.0247 75.4793,95.3419 76.0212,96.9232 76.1296,97.2385 76.7799,99.1238 76.8883,99.4369 77.5386,101.309 77.6469,101.62 78.2972,103.479 78.4056,103.7878 79.0559,105.6338 79.1643,105.9404 79.8146,107.7736 79.9229,108.0781 80.5732,109.8985 80.6816,110.2008 81.3319,112.0085 81.4403,112.3087 82.0906,114.1038 82.1989,114.4019 82.8492,116.1845 82.9576,116.4805 83.6079,118.2506 83.7163,118.5446 84.3666,120.3024 84.4749,120.5943 85.1252,122.3398 85.2336,122.6297 85.8839,124.363 85.9923,124.6509 86.6426,126.3721 86.7509,126.6579 87.4012,128.3671 87.5096,128.651 88.1599,130.3483 88.2683,130.6302 88.9186,132.3156 89.0269,132.5955 89.6772,134.2692 89.7856,134.5471 90.4359,136.2091 90.5443,136.4851 91.1946,138.1355 91.3029,138.4096 91.9532,140.0485 92.0616,140.3207 92.7119,141.9481 92.8203,142.2184 93.4706,143.8344 93.5789,144.1028 94.2292,145.7076 94.3376,145.9741 94.9879,147.5677 95.0963,147.8324 95.8549,149.6777 95.9633,149.9402 96.722,151.7708 96.8304,152.0313 97.589,153.8473 97.6974,154.1057 98.4561,155.9072 98.5645,156.1635 99.3231,157.9506 99.4315,158.2049 100.1902,159.9778 100.2986,160.2301 101.0572,161.9888 101.1656,162.2391 101.9243,163.9838 102.0326,164.2321 102.7913,165.9629 102.8997,166.2092 103.6584,167.9262 103.7667,168.1705 104.5254,169.8739 104.6338,170.1162 105.3925,171.806 105.5008,172.0464 106.2595,173.7227 106.3679,173.9612 107.1266,175.6242 107.2349,175.8608 107.9936,177.5105 108.102,177.7452 108.8606,179.3817 108.969,179.6146 109.7277,181.238 109.8361,181.469 110.5947,183.0796 110.7031,183.3087 111.4618,184.9064 111.5702,185.1338 112.3288,186.7187 112.4372,186.9442 113.3043,188.7403 113.4126,188.9638 114.2797,190.7437 114.3881,190.9652 115.2551,192.7292 115.3635,192.9487 116.2306,194.6969 116.3389,194.9144 117.206,196.6469 117.3144,196.8625 118.1814,198.5795 118.2898,198.7931 119.1568,200.4947 119.2652,200.7065 120.1323,202.3928 120.2406,202.6026 121.1077,204.2738 121.2161,204.4818 122.0831,206.138 122.1915,206.3441 123.0585,207.9855 123.1669,208.1898 124.034,209.8165 124.1424,210.0189 125.0094,211.631 125.1178,211.8316 125.9848,213.4292 126.0932,213.628 126.9603,215.2113 127.0686,215.4084 127.9357,216.9775 128.0441,217.1727 128.9111,218.7278 129.0195,218.9213 129.9949,220.6542 130.1033,220.8458 131.0787,222.5614 131.1871,222.7511 132.1625,224.4497 132.2709,224.6375 133.2464,226.3191 133.3547,226.505 134.3302,228.1699 134.4385,228.354 135.414,230.0023 135.5224,230.1846 136.4978,231.8165 136.6062,231.9969 137.5816,233.6126 137.69,233.7912 138.6654,235.3908 138.7738,235.5677 139.7492,237.1514 139.8576,237.3264 140.833,238.8943 140.9414,239.0677 141.9168,240.62 142.0252,240.7916 143.0006,242.3285 143.109,242.4984 144.0844,244.0199 144.1928,244.1881 145.2766,245.8611 145.385,246.0274 146.4688,247.6821 146.5772,247.8466 147.661,249.4831 147.7694,249.6459 148.8532,251.2645 148.9616,251.4255 150.0454,253.0264 150.1538,253.1856 151.2376,254.769 151.346,254.9264 152.4298,256.4925 152.5382,256.6482 153.622,258.1971 153.7304,258.3512 154.8142,259.8831 154.9225,260.0355 156.0063,261.5506 156.1147,261.7013 157.1985,263.1999 157.3069,263.349 158.3907,264.8311 158.4991,264.9785 159.5829,266.4445 159.6913,266.5903 160.8835,268.1844 160.9919,268.3285 162.1841,269.9036 162.2924,270.0459 163.4846,271.6022 163.593,271.7429 164.7852,273.2806 164.8936,273.4195 166.0858,274.9389 166.1942,275.0762 167.3863,276.5774 167.4947,276.7131 168.6869,278.1964 168.7953,278.3305 169.9875,279.7961 170.0959,279.9285 171.2881,281.3767 171.3964,281.5075 172.5886,282.9384 172.697,283.0677 173.8892,284.4815 173.9976,284.6092 175.1898,286.0061 175.2982,286.1323 176.5987,287.6373 176.7071,287.7619 178.0077,289.2474 178.1161,289.3704 179.4166,290.8367 179.525,290.9581 180.8256,292.4055 180.934,292.5253 182.2345,293.954 182.3429,294.0722 183.6435,295.4824 183.7519,295.5992 185.0524,296.9912 185.1608,297.1064 186.4614,298.4804 186.5698,298.5942 187.8703,299.9504 187.9787,300.0627 189.2793,301.4014 189.3877,301.5122 190.6882,302.8336 190.7966,302.943 192.2056,304.3554 192.314,304.4632 193.7229,305.8559 193.8313,305.9623 195.2402,307.3356 195.3486,307.4405 196.7576,308.7947 196.866,308.8981 198.2749,310.2335 198.3833,310.3355 199.7922,311.6523 199.9006,311.7529 201.3096,313.0514 201.418,313.1506 202.8269,314.431 202.9353,314.5288 204.3442,315.7914 204.4526,315.8878 205.8616,317.1329 205.97,317.228 207.3789,318.4557 207.4873,318.5495 208.8962,319.7601 209.0046,319.8526 210.522,321.1376 210.6303,321.2287 212.1477,322.4946 212.256,322.5843 213.7734,323.8313 213.8818,323.9197 215.3991,325.1482 215.5075,325.2353 217.0248,326.4454 217.1332,326.5312 218.6505,327.7233 218.7589,327.8078 220.2762,328.9821 220.3846,329.0654 221.902,330.2223 222.0103,330.3043 223.5277,331.4439 223.636,331.5247 225.1534,332.6473 225.2618,332.7269 226.7791,333.8329 226.8875,333.9113 228.4048,335.0007 228.5132,335.0779 230.1389,336.2273 230.2473,336.3033 231.873,337.4343 231.9814,337.5091 233.6071,338.6222 233.7155,338.6958 235.3412,339.7913 235.4496,339.8637 237.0753,340.9417 237.1837,341.013 238.8094,342.0739 238.9178,342.1441 240.5435,343.1882 240.6519,343.2572 242.2776,344.2847 242.3859,344.3526 244.0117,345.3638 244.12,345.4307 245.7458,346.4258 245.8541,346.4916 247.4798,347.4709 247.5882,347.5357 249.2139,348.4994 249.3223,348.5631 250.948,349.5116 251.0564,349.5743 252.7905,350.5694 252.8989,350.6311 254.633,351.6094 254.7414,351.67 256.4755,352.6319 256.5838,352.6915 258.3179,353.6371 258.4263,353.6957 260.1604,354.6253 260.2688,354.683 262.0029,355.5969 262.1113,355.6536 263.8454,356.5522 263.9537,356.6078 265.6878,357.4913 265.7962,357.546 267.5303,358.4145 267.6387,358.4683 269.3728,359.3222 269.4812,359.3751 271.2153,360.2146 271.3237,360.2666 273.0577,361.0919 273.1661,361.1431 274.9002,361.9545 275.0086,362.0047 275.7673,362.3553 275.8757,181.521 276.6343,183.1312 276.7427,183.3603 277.5014,184.9576 277.6097,185.1849 278.3684,186.7695 278.4768,186.9949 279.3438,188.7906 279.4522,189.014 280.3193,190.7936 280.4276,191.015 281.2947,192.7786 281.4031,192.9981 282.2701,194.7458 282.3785,194.9633 283.2456,196.6954 283.3539,196.911 284.221,198.6276 284.3294,198.8412 285.1964,200.5424 285.3048,200.7541 286.1718,202.44 286.2802,202.6498 287.1473,204.3207 287.2556,204.5286 288.1227,206.1844 288.2311,206.3905 289.0981,208.0315 289.2065,208.2357 290.0736,209.862 290.1819,210.0644 291.049,211.6761 291.1574,211.8767 292.0244,213.474 292.1328,213.6727 292.9998,215.2557 293.1082,215.4527 293.9753,217.0214 294.0836,217.2167 294.9507,218.7714 295.0591,218.9648 296.0345,220.6973 296.1429,220.8889 297.1183,222.6041 297.2267,222.7938 298.2021,224.4919 298.3105,224.6797 299.2859,226.361 299.3943,226.5468 300.3697,228.2114 300.4781,228.3954 301.4535,230.0434 301.5619,230.2256 302.5374,231.8571 302.6457,232.0375 303.6212,233.6528 303.7295,233.8314 304.705,235.4306 304.8134,235.6074 305.7888,237.1908 305.8972,237.3658 306.8726,238.9334 306.981,239.1067 307.9564,240.6586 308.0648,240.8302 309.0402,242.3667 309.1486,242.5366 310.124,244.0578 310.2324,244.226 311.3162,245.8985 311.4246,246.0649 312.5084,247.7191 312.6168,247.8836 313.7006,249.5198 313.809,249.6825 314.8928,251.3007 315.0012,251.4617 316.085,253.0622 316.1934,253.2214 317.2772,254.8044 317.3855,254.9618 318.4694,256.5275 318.5777,256.6832 319.6615,258.2318 319.7699,258.3858 320.8537,259.9174 320.9621,260.0697 322.0459,261.5846 322.1543,261.7352 323.2381,263.2335 323.3465,263.3825 324.4303,264.8643 324.5387,265.0117 325.6225,266.4773 325.7309,266.6231 326.9231,268.2169 327.0314,268.3609 328.2236,269.9356 328.332,270.0779 329.5242,271.6339 329.6326,271.7745 330.8248,273.3119 330.9332,273.4508 332.1253,274.9698 332.2337,275.1071 333.4259,276.608 333.5343,276.7436 334.7265,278.2266 334.8349,278.3606 336.0271,279.8259 336.1354,279.9583 337.3276,281.4061 337.436,281.537 338.6282,282.9675 338.7366,283.0968 339.9288,284.5102 340.0372,284.6379 341.2293,286.0345 341.3377,286.1607 342.6383,287.6653 342.7467,287.7899 344.0473,289.2751 344.1556,289.398 345.4562,290.864 345.5646,290.9854 346.8652,292.4324 346.9735,292.5522 348.2741,293.9806 348.3825,294.0988 349.6831,295.5087 349.7914,295.6254 351.092,297.0171 351.2004,297.1323 352.501,298.506 352.6093,298.6197 353.9099,299.9757 354.0183,300.0879 355.3189,301.4263 355.4272,301.5371 356.7278,302.8583 356.8362,302.9676 358.2452,304.3796 358.3535,304.4875 359.7625,305.8799 359.8709,305.9862 361.2798,307.3592 361.3882,307.4641 362.7972,308.818 362.9055,308.9214 364.3145,310.2565 364.4229,310.3585 365.8318,311.675 365.9402,311.7755 367.3491,313.0737 367.4575,313.1729 368.8665,314.453 368.9749,314.5508 370.3838,315.8131 370.4922,315.9095 371.9011,317.1543 372.0095,317.2494 373.4185,318.4768 373.5269,318.5706 375.0442,319.8734 375.1526,319.9658 376.6699,321.2492 376.7783,321.3402 378.2956,322.6045 378.404,322.6941 379.9213,323.9396 380.0297,324.0279 381.5471,325.2548 381.6554,325.3418 383.1728,326.5505 383.2811,326.6362 384.7985,327.8268 384.9069,327.9112 386.4242,329.0841 386.5326,329.1673 388.0499,330.3227 388.1583,330.4046 389.6756,331.5429 389.784,331.6235 391.3013,332.7448 391.4097,332.8243 392.927,333.9289 393.0354,334.0072 394.5528,335.0953 394.6611,335.1725 396.2869,336.3204 396.3952,336.3963 398.021,337.526 398.1293,337.6007 399.755,338.7124 399.8634,338.7859 401.4891,339.88 401.5975,339.9524 403.2232,341.0291 403.3316,341.1003 404.9573,342.1599 405.0657,342.23 406.6914,343.2727 406.7998,343.3417 408.4255,344.3679 408.5339,344.4358 410.1596,345.4457 410.268,345.5125 411.8937,346.5064 412.0021,165.6879 412.7608,167.4086 412.8691,167.6534 413.6278,169.3604 413.7362,169.6032 414.4949,171.2966 414.6032,171.5375 415.3619,173.2174 415.4703,173.4564 416.2289,175.1228 416.3373,175.36 417.096,177.0131 417.2044,177.2484 417.963,178.8883 418.0714,179.1217 418.8301,180.7486 418.9385,180.9801 419.6971,182.594 419.8055,182.8237 420.5642,184.4248 420.6726,184.6526 421.4312,186.2409 421.5396,186.4669 422.4067,188.2667 422.515,188.4907 423.3821,190.2744 423.4905,190.4964 424.3575,192.2641 424.4659,192.4841 425.3329,194.236 425.4413,194.454 426.3084,196.1901 426.4168,196.4062 427.2838,198.1268 427.3922,198.3409 428.2592,200.0461 428.3676,200.2583 429.2347,201.9482 429.343,202.1585 430.2101,203.8332 430.3185,204.0416 431.1855,205.7014 431.2939,205.9079 432.1609,207.5528 432.2693,207.7575 433.1364,209.3876 433.2448,209.5904 434.1118,211.2059 434.2202,211.407 435.0872,213.008 435.1956,213.2072 436.0627,214.7939 436.171,214.9913 437.0381,216.5638 437.1465,216.7595 438.0135,218.3178 438.1219,218.5117 439.0973,220.2483 439.2057,220.4403 440.1811,222.1596 440.2895,222.3496 441.2649,224.0518 441.3733,224.24 442.3487,225.9252 442.4571,226.1115 443.4326,227.7799 443.5409,227.9644 444.5164,229.6162 444.6247,229.7989 445.6002,231.4342 445.7086,231.615 446.684,233.2342 446.7924,233.4132 447.7678,235.0161 447.8762,235.1934 448.8516,236.7804 448.96,236.9558 449.9354,238.5271 450.0438,238.7008 451.0192,240.2564 451.1276,240.4284 452.103,241.9685 452.2114,242.1387 453.1868,243.6635 453.2952,243.8321 454.379,245.5086 454.4874,245.6753 455.5712,247.3334 455.6796,247.4983 456.7634,249.1383 456.8718,249.3014 457.9556,250.9235 458.064,251.0848 459.1478,252.689 459.2562,252.8486 460.34,254.4353 460.4484,254.5931 461.5322,256.1625 461.6406,256.3186 462.7244,257.8707 462.8327,258.0251 463.9166,259.5603 464.0249,259.713 465.1087,261.2314 465.2171,261.3824 466.3009,262.8841 466.4093,263.0335 467.4931,264.5188 467.6015,264.6665 468.6853,266.1356 468.7937,266.2817 469.9859,267.8792 470.0943,268.0236 471.2865,269.602 471.3948,269.7446 472.587,271.3042 472.6954,271.4452 473.8876,272.9862 473.996,273.1254 475.1882,274.648 475.2965,274.7856 476.4887,276.29 476.5971,276.426 477.7893,277.9124 477.8977,278.0468 479.0899,279.5155 479.1983,279.6482 480.3905,281.0994 480.4988,281.2305 481.691,282.6644 481.7994,282.794 482.9916,284.2108 483.1,284.3388 484.2922,285.7387 484.4005,285.8652 485.7011,287.3733 485.8095,287.4982 487.1101,288.9868 487.2185,289.1101 488.519,290.5795 488.6274,290.7011 489.928,292.1516 490.0364,292.2717 491.3369,293.7033 491.4453,293.8219 492.7459,295.2351 492.8543,295.3521 494.1548,296.747 494.2632,296.8625 495.5638,298.2394 495.6722,298.3534 496.9727,299.7125 497.0811,299.825 498.3817,301.1666 498.4901,301.2776 499.7906,302.6018 499.899,302.7115 501.308,304.1268 501.4164,304.2349 502.8253,305.6305 502.9337,305.7371 504.3426,307.1133 504.451,307.2185 505.86,308.5755 505.9684,308.6792 507.3773,310.0174 507.4857,310.1196 508.8946,311.4392 509.003,311.54 510.412,312.8412 510.5203,312.9406 511.9293,314.2237 512.0377,314.3218 513.4466,315.587 513.555,315.6837 514.964,316.9314 515.0723,317.0267 516.4813,318.257 516.5897,318.351 517.9986,319.5642 518.107,319.6569 519.6243,320.9446 519.7327,321.0359 521.2501,322.3044 521.3584,322.3944 522.8758,323.644 522.9842,323.7326 524.5015,324.9636 524.6099,325.0509 526.1272,326.2636 526.2356,326.3496 527.7529,327.5442 527.8613,327.6289 529.3786,328.8057 529.487,328.8892 531.0043,330.0485 531.1127,330.1307 532.6301,331.2727 532.7384,331.3537 534.2558,332.4787 534.3642,332.5585 535.8815,333.6667 535.9899,333.7453 537.5072,334.8371 537.6156,334.9145 539.2413,336.0662 539.3497,336.1424 540.9754,337.2758 541.0838,337.3508 542.7095,338.4663 542.8179,338.54 544.4436,339.6378 544.552,339.7104 546.1777,340.7907 546.2861,340.8621 547.9118,341.9253 548.0201,341.9956 549.6459,343.0419 549.7542,343.1111 551.38,344.1407 551.4883,344.2088 553.1141,345.2221 553.2224,345.2891 554.8481,346.2863 554.9565,346.3523 556.5822,347.3337 556.6906,347.3986 558.3163,348.3644 558.4247,167.544 559.1834,169.2517 559.2918,169.4947 560.0504,171.1888 560.1588,171.4299 560.9175,173.1105 561.0259,173.3496 561.7845,175.0168 561.8929,175.254 562.6516,176.9079 562.76,177.1433 563.5186,178.784 563.627,179.0174 564.3857,180.6451 564.494,180.8767 565.2527,182.4913 565.3611,182.7211 566.1198,184.3229 566.2281,184.5508 566.9868,186.1398 567.0952,186.3659 567.9622,188.1666 568.0706,188.3906 568.9377,190.1752 569.046,190.3972 569.9131,192.1657 570.0215,192.3858 570.8885,194.1385 570.9969,194.3566 571.864,196.0935 571.9723,196.3097 572.8394,198.031 572.9478,198.2452 573.8148,199.9512 573.9232,200.1635 574.7902,201.8541 574.8986,202.0645 575.7657,203.74 575.874,203.9485 576.7411,205.609 576.8495,205.8156 577.7165,207.4612 577.8249,207.666 578.692,209.2969 578.8003,209.4998 579.6674,211.116 579.7758,211.3171 580.6428,212.9189 580.7512,213.1182 581.6182,214.7056 581.7266,214.9031 582.5937,216.4763 582.702,216.672 583.5691,218.2311 583.6775,218.4251 584.6529,220.1624 584.7613,220.3545 585.7367,222.0745 585.8451,222.2647 586.8205,223.9676 586.9289,224.1559 587.9043,225.8419 588.0127,226.0283 588.9881,227.6975 589.0965,227.882 590.0719,229.5346 590.1803,229.7173 591.1558,231.3534 591.2641,231.5343 592.2396,233.1541 592.3479,233.3332 593.3234,234.9369 593.4318,235.1142 594.4072,236.7019 594.5156,236.8775 595.491,238.4494 595.5994,238.6232 596.5748,240.1795 596.6832,240.3515 597.6586,241.8923 597.767,242.0627 598.7424,243.5881 598.8508,243.7568 599.9346,245.434 600.043,245.6008 601.1268,247.2597 601.2352,247.4247 602.319,249.0654 602.4274,249.2285 603.5112,250.8513 603.6196,251.0127 604.7034,252.6177 604.8118,252.7773 605.8956,254.3648 606.0039,254.5226 607.0878,256.0927 607.1961,256.2488 608.2799,257.8017 608.3883,257.9561 609.4721,259.492 609.5805,259.6448 610.6643,261.1638 610.7727,261.3149 611.8565,262.8173 611.9649,262.9668 613.0487,264.4528 613.1571,264.6005 614.2409,266.0703 614.3493,266.2164 615.5415,267.8147 615.6498,267.9591 616.842,269.5382 616.9504,269.6809 618.1426,271.2412 618.251,271.3822 619.4432,272.9239 619.5516,273.0632 620.7437,274.5865 620.8521,274.7241 622.0443,276.2292 622.1527,276.3652 623.3449,277.8524 623.4533,277.9867 624.6455,279.4561 624.7538,279.5889 625.946,281.0408 626.0544,281.172 627.2466,282.6065 627.355,282.7361 628.5472,284.1535 628.6556,284.2816 629.8477,285.6821 629.9561,285.8086 631.2567,287.3175 631.3651,287.4424 632.6657,288.9317 632.774,289.055 634.0746,290.5251 634.183,290.6468 635.4836,292.0979 635.5919,292.218 636.8925,293.6503 637.0009,293.7689 638.3015,295.1827 638.4098,295.2998 639.7104,296.6953 639.8188,296.8109 641.1194,298.1884 641.2277,298.3024 642.5283,299.6622 642.6367,299.7747 643.9373,301.1169 644.0456,301.228 645.3462,302.5528 645.4546,302.6625 646.8636,304.0784 646.9719,304.1866 648.3809,305.5828 648.4893,305.6895 649.8982,307.0663 650.0066,307.1715 651.4156,308.5292 651.5239,308.6329 652.9329,309.9717 653.0413,310.0739 654.4502,311.3941 654.5586,311.495 655.9675,312.7968 656.0759,312.8962 657.4849,314.1799 657.5933,314.278 659.0022,315.5438 659.1106,315.6405 660.5195,316.8888 660.6279,316.9841 662.0369,318.215 662.1453,318.309 663.5542,319.5228 663.6626,319.6155 665.1799,320.9038 665.2883,320.9951 666.8056,322.2642 666.914,322.3542 668.4314,323.6044 668.5397,323.693 670.0571,324.9246 670.1654,325.0119 671.6828,326.2252 671.7912,326.3112 673.3085,327.5063 673.4169,327.5911 674.9342,328.7684 675.0426,328.8519 676.5599,330.0117 676.6683,330.094 678.1856,331.2365 678.294,331.3175 679.8114,332.443 679.9197,332.5228 681.4371,333.6316 681.5454,333.7102 683.0628,334.8025 683.1712,334.8799 684.7969,336.0322 684.9053,336.1084 686.531,337.2423 686.6394,337.3173 688.2651,338.4333 688.3734,338.5071 689.9992,339.6053 690.1075,339.6779 691.7333,340.7587 691.8416,340.8302 693.4673,341.8938 693.5757,341.9642 695.2014,343.0109 695.3098,343.0801 696.9355,344.1103 697.0439,344.1784 698.6696,345.1921 698.778,345.2592 700.4037,346.2568 700.5121,346.3228 702.1378,347.3046 702.2462,347.3696 703.8719,348.3358 703.9803,348.3997 705.606,349.3506 705.7144,349.4135 707.3401,350.3492 707.4485,350.4111 709.1826,351.3929 709.291,351.4538 711.0251,352.4191 711.1334,352.4789 712.8675,353.4279 712.9759,353.4867 714.71,354.4196 714.8184,354.4775 716.5525,355.3947 716.6609,355.4516 718.395,356.3533 718.5033,356.4092 720.2374,357.2958 720.3458,357.3507 722.0799,358.2223 722.1883,358.2764 723.9224,359.1333 724.0308,359.1864 725.7649,360.0288 725.8732,360.081 726.9571,360.6003 727.0654,179.7677 727.8241,181.3901 727.9325,181.6209 728.6911,183.2304 728.7995,183.4594 729.5582,185.0561 729.6666,185.2833 730.4252,186.8672 730.5336,187.0925 731.4007,188.8874 731.5091,189.1107 732.3761,190.8895 732.4845,191.1109 733.3515,192.8737 733.4599,193.0931 734.327,194.8401 734.4353,195.0575 735.3024,196.7888 735.4108,197.0043 736.2778,198.7201 736.3862,198.9336 737.2532,200.6341 737.3616,200.8457 738.2287,202.5309 738.3371,202.7406 739.2041,204.4107 739.3125,204.6186 740.1795,206.2737 740.2879,206.4797 741.155,208.12 741.2633,208.3241 742.1304,209.9497 742.2388,210.152 743.1058,211.763 743.2142,211.9635 744.0812,213.5601 744.1896,213.7588 745.0567,215.341 745.165,215.5379 746.0321,217.106 746.1405,217.3011 747.0075,218.8552 747.1159,219.0486 748.0913,220.7803 748.1997,220.9718 749.1751,222.6863 749.2835,222.8758 750.259,224.5733 750.3673,224.7609 751.3428,226.4415 751.4511,226.6273 752.4266,228.2911 752.535,228.4751 753.5104,230.1223 753.6188,230.3044 754.5942,231.9353 754.7026,232.1156 755.678,233.7302 755.7864,233.9087 756.7618,235.5072 756.8702,235.684 757.8456,237.2666 757.954,237.4416 758.9294,239.0085 759.0378,239.1817 760.0132,240.733 760.1216,240.9045 761.097,242.4403 761.2054,242.6101 762.1809,244.1306 762.2892,244.2987 763.373,245.9706 763.4814,246.1369 764.5652,247.7904 764.6736,247.9548 765.7574,249.5903 765.8658,249.7529 766.9496,251.3705 767.058,251.5313 768.1418,253.1312 768.2502,253.2903 769.334,254.8726 769.4424,255.03 770.5262,256.595 770.6346,256.7506 771.7184,258.2985 771.8268,258.4525 772.9106,259.9834 773.0189,260.1356 774.1028,261.6498 774.2111,261.8004 775.2949,263.298 775.4033,263.447 776.4871,264.9282 776.5955,265.0755 777.6793,266.5405 777.7877,266.6862 778.9799,268.2793 779.0883,268.4232 780.2805,269.9973 780.3888,270.1395 781.581,271.6948 781.6894,271.8353 782.8816,273.372 782.99,273.5109 784.1822,275.0293 784.2906,275.1665 785.4828,276.6667 785.5911,276.8023 786.7833,278.2847 786.8917,278.4186 788.0839,279.8833 788.1923,280.0156 789.3845,281.4628 789.4928,281.5936 790.685,283.0235 790.7934,283.1527 791.9856,284.5656 792.094,284.6932 793.2862,286.0892 793.3946,286.2154 794.6951,287.7193 794.8035,287.8438 796.1041,289.3284 796.2125,289.4513 797.513,290.9166 797.6214,291.0379 798.922,292.4843 799.0304,292.6041 800.3309,294.0318 800.4393,294.15 801.7399,295.5593 801.8483,295.676 803.1488,297.067 803.2572,297.1822 804.5578,298.5553 804.6662,298.669 805.9667,300.0243 806.0751,300.1365 807.3757,301.4743 807.4841,301.5851 808.7847,302.9056 808.893,303.015 810.302,304.4264 810.4104,304.5342 811.8193,305.9259 811.9277,306.0323 813.3366,307.4047 813.445,307.5095 814.854,308.8628 814.9624,308.9662 816.3713,310.3007 816.4797,310.4026 817.8886,311.7185 817.997,311.819 819.406,313.1167 819.5144,313.2158 820.9233,314.4954 821.0317,314.5931 822.4406,315.8549 822.549,315.9513 823.958,317.1955 824.0664,317.2905 825.4753,318.5174 825.5837,318.6112 827.101,319.9134 827.2094,320.0058 828.7267,321.2886 828.8351,321.3796 830.3525,322.6433 830.4608,322.7329 831.9782,323.9779 832.0865,324.0661 833.6039,325.2925 833.7123,325.3795 835.2296,326.5876 835.338,326.6732 836.8553,327.8634 836.9637,327.9477 838.481,329.1201 838.5894,329.2033 840.1067,330.3582 840.2151,330.4401 841.7325,331.5778 841.8408,331.6585 843.3582,332.7793 843.4665,332.8587 844.9839,333.9628 845.0923,334.0411 846.718,335.2058 846.8264,335.2829 848.4521,336.4291 848.5604,336.5049 850.1862,337.633 850.2945,337.7076 851.9203,338.8177 852.0286,338.8912 853.6544,339.9837 853.7627,340.0559 855.3884,341.1311 855.4968,341.2022 857.1225,342.2603 857.2309,342.3303 858.8566,343.3716 858.965,343.4404 860.5907,344.4652 860.6991,344.5329 862.3248,345.5414 862.4332,345.6081 864.0589,346.6006 864.1673,346.6662 865.793,347.6429 865.9014,347.7075 867.5271,348.6687 867.6355,348.7323 868.3942,349.1755 868.5025,168.3543 869.2612,170.0564 869.3696,170.2986 870.1283,171.987 870.2366,172.2273 870.9953,173.9023 871.1037,174.1407 871.8623,175.8023 871.9707,176.0388 872.7294,177.6872 872.8378,177.9218 873.5964,179.557 873.7048,179.7897 874.4635,181.412 874.5719,181.6428 875.3305,183.2521 875.4389,183.4811 876.1976,185.0776 876.306,185.3048 877.0646,186.8885 877.173,187.1139 878.0401,188.9086 878.1484,189.1319 879.0155,190.9105 879.1239,191.1318 879.9909,192.8945 880.0993,193.1138 880.9663,194.8607 881.0747,195.0781 881.9418,196.8093 882.0502,197.0247 882.9172,198.7404 883.0256,198.9539 883.8926,200.6542 884.001,200.8657 884.8681,202.5508 884.9764,202.7605 885.8435,204.4304 885.9519,204.6383 886.8189,206.2932 886.9273,206.4992 887.7943,208.1393 887.9027,208.3434 888.7698,209.9689 888.8782,210.1711 889.7452,211.782 889.8536,211.9825 890.7206,213.5789 890.829,213.7776 891.6961,215.3597 891.8044,215.5566 892.6715,217.1245 892.7799,217.3196 893.6469,218.8735 893.7553,219.0669 894.7307,220.7985 894.8391,220.9899 895.8145,222.7043 895.9229,222.8938 896.8983,224.5911 897.0067,224.7787 897.9822,226.4591 898.0905,226.6449 899.066,228.3085 899.1743,228.4925 900.1498,230.1396 900.2582,230.3217 901.2336,231.9524 901.342,232.1326 902.3174,233.7471 902.4258,233.9256 903.4012,235.524 903.5096,235.7007 904.485,237.2832 904.5934,237.4581 905.5688,239.0249 905.6772,239.1981 906.6526,240.7492 906.761,240.9207 907.7364,242.4564 907.8448,242.6262 908.8202,244.1466 908.9286,244.3147 910.0124,245.9863 910.1208,246.1526 911.2046,247.806 911.313,247.9704 912.3968,249.6057 912.5052,249.7683 913.589,251.3857 913.6974,251.5466 914.7812,253.1463 914.8896,253.3054 915.9734,254.8875 916.0818,255.0449 917.1656,256.6097 917.274,256.7654 918.3578,258.3131 918.4661,258.467 919.55,259.9978 919.6583,260.1501 920.7421,261.6641 920.8505,261.8147 921.9343,263.3121 922.0427,263.4611 923.1265,264.9421 923.2349,265.0894 924.3187,266.5543 924.4271,266.7 925.6193,268.2929 925.7277,268.4368 926.9199,270.0108 927.0282,270.153 928.2204,271.7081 928.3288,271.8486 929.521,273.3852 929.6294,273.5241 930.8216,275.0423 930.93,275.1795 932.1221,276.6796 932.2305,276.8152 933.4227,278.2974 933.5311,278.4313 934.7233,279.8958 934.8317,280.0282 936.0239,281.4752 936.1322,281.606 937.3244,283.0357 937.4328,283.1649 938.625,284.5777 938.7334,284.7053 939.9256,286.1012 940.0339,286.2273 941.3345,287.7311 941.4429,287.8556 942.7435,289.34 942.8519,289.4629 944.1524,290.9281 944.2608,291.0494 945.5614,292.4957 945.6698,292.6154 946.9703,294.043 947.0787,294.1612 948.3793,295.5704 948.4877,295.687 949.7882,297.0779 949.8966,297.1931 951.1972,298.5661 951.3056,298.6797 952.6061,300.0349 952.7145,300.1471 954.0151,301.4848 954.1235,301.5956 955.424,302.916 955.5324,303.0253 956.9414,304.4366 957.0498,304.5444 958.4587,305.936 958.5671,306.0423 959.976,307.4146 960.0844,307.5194 961.4934,308.8726 961.6018,308.976 963.0107,310.3103 963.1191,310.4122 964.528,311.7281 964.6364,311.8286 966.0454,313.1261 966.1538,313.2252 967.5627,314.5046 967.6711,314.6024 969.08,315.864 969.1884,315.9604 970.5974,317.2045 970.7058,317.2995 972.1147,318.5263 972.2231,318.62 973.7404,319.9222 973.8488,320.0145 975.3661,321.2972 975.4745,321.3882 976.9918,322.6518 977.1002,322.7414 978.6176,323.9862 978.7259,324.0745 980.2433,325.3008 980.3517,325.3877 981.869,326.5957 981.9774,326.6814 983.4947,327.8714 983.6031,327.9557 985.1204,329.128 985.2288,329.2111 986.7461,330.366 986.8545,330.4478 988.3718,331.5855 988.4802,331.6661 989.9976,332.7868 990.1059,332.8662 991.6233,333.9702 991.7316,334.0485 993.3574,335.2132 993.4657,335.2902 995.0915,336.4363 995.1998,336.5121 996.8256,337.6401 996.9339,337.7147 998.5596,338.8247 998.668,338.8981 1000.2937,339.9905 1000.4021,340.0628 1002.0278,341.1378 1002.1362,341.2089 1003.7619,342.2669 1003.8703,342.3369 1005.496,343.3781 1005.6044,343.4469 1007.2301,344.4716 1007.3385,344.5394 1008.9642,345.5477 1009.0726,345.6144 1010.6983,346.6068 1010.8067,346.6724 1012.4324,347.649 1012.5408,347.7136 1014.1665,348.6747 1014.2749,348.7383 1015.1419,349.2445 1015.2503,168.4233 1016.009,170.1249 1016.1174,170.367 1016.876,172.055 1016.9844,172.2952 1017.7431,173.9697 1017.8515,174.208 1018.6101,175.8692 1018.7185,176.1056 1019.4772,177.7535 1019.5855,177.988 1020.3442,179.6228 1020.4526,179.8555 1021.2113,181.4773 1021.3196,181.708 1022.0783,183.3169 1022.1867,183.5458 1022.9454,185.1418 1023.0537,185.3689 1023.8124,186.9523 1023.9208,187.1775 1024.7878,188.9717 1024.8962,189.195 1025.7633,190.9731 1025.8716,191.1943 1026.7387,192.9565 1026.8471,193.1758 1027.7141,194.9222 1027.8225,195.1395 1028.6895,196.8702 1028.7979,197.0855 1029.665,198.8007 1029.7734,199.0142 1030.6404,200.714 1030.7488,200.9255 1031.6158,202.6101 1031.7242,202.8197 1032.5913,204.4892 1032.6996,204.697 1033.5667,206.3515 1033.6751,206.5574 1034.5421,208.197 1034.6505,208.4011 1035.5175,210.0261 1035.6259,210.2283 1036.493,211.8387 1036.6014,212.0391 1037.4684,213.6351 1037.5768,213.8337 1038.4438,215.4154 1038.5522,215.6122 1039.4193,217.1797 1039.5276,217.3747 1040.3947,218.9282 1040.5031,219.1215 1041.4785,220.8526 1041.5869,221.044 1042.5623,222.7579 1042.6707,222.9473 1043.6461,224.6441 1043.7545,224.8317 1044.7299,226.5116 1044.8383,226.6974 1045.8137,228.3606 1045.9221,228.5444 1046.8975,230.1911 1047.0059,230.3731 1047.9813,232.0033 1048.0897,232.1836 1049.0652,233.7976 1049.1735,233.976 1050.149,235.574 1050.2573,235.7506 1051.2328,237.3327 1051.3412,237.5076 1052.3166,239.0739 1052.425,239.247 1053.4004,240.7977 1053.5088,240.9691 1054.4842,242.5044 1054.5926,242.6741 1055.568,244.1941 1055.6764,244.3621 1056.7602,246.0334 1056.8686,246.1996 1057.9524,247.8525 1058.0608,248.0169 1059.1446,249.6517 1059.253,249.8143 1060.3368,251.4312 1060.4452,251.592 1061.529,253.1912 1061.6373,253.3503 1062.7212,254.932 1062.8295,255.0893 1063.9133,256.6537 1064.0217,256.8093 1065.1055,258.3566 1065.2139,258.5105 1066.2977,260.0409 1066.4061,260.1931 1067.4899,261.7067 1067.5983,261.8572 1068.6821,263.3543 1068.7905,263.5031 1069.8743,264.9838 1069.9827,265.131 1071.0665,266.5955 1071.1749,266.7411 1072.3671,268.3336 1072.4754,268.4775 1073.6676,270.051 1073.776,270.1932 1074.9682,271.7479 1075.0766,271.8883 1076.2688,273.4245 1076.3772,273.5633 1077.5693,275.0811 1077.6777,275.2182 1078.8699,276.7179 1078.9783,276.8534 1080.1705,278.3352 1080.2789,278.4691 1081.4711,279.9332 1081.5794,280.0656 1082.7716,281.5122 1082.88,281.6429 1084.0722,283.0723 1084.1806,283.2014 1085.3728,284.6138 1085.4811,284.7414 1086.6733,286.1368 1086.7817,286.2629 1088.0823,287.7663 1088.1907,287.8908 1089.4912,289.3748 1089.5996,289.4976 1090.9002,290.9624 1091.0086,291.0837 1092.3091,292.5296 1092.4175,292.6493 1093.7181,294.0764 1093.8265,294.1946 1095.1271,295.6033 1095.2354,295.72 1096.536,297.1105 1096.6444,297.2256 1097.945,298.5982 1098.0533,298.7118 1099.3539,300.0667 1099.4623,300.1788 1100.7629,301.5162 1100.8712,301.6269 1102.1718,302.9469 1102.2802,303.0562 1103.6891,304.4671 1103.7975,304.5748 1105.2065,305.9661 1105.3149,306.0723 1106.7238,307.4442 1106.8322,307.549 1108.2411,308.9018 1108.3495,309.0052 1109.7585,310.3391 1109.8669,310.441 1111.2758,311.7565 1111.3842,311.857 1112.7931,313.1541 1112.9015,313.2532 1114.3105,314.5323 1114.4189,314.63 1115.8278,315.8913 1115.9362,315.9876 1117.3451,317.2314 1117.4535,317.3264 1118.8625,318.5528 1118.9709,318.6465 1120.4882,319.9483 1120.5966,320.0406 1122.1139,321.323 1122.2223,321.4139 1123.7396,322.6772 1123.848,322.7667 1125.3653,324.0112 1125.4737,324.0994 1126.991,325.3253 1127.0994,325.4123 1128.6168,326.6199 1128.7251,326.7055 1130.2425,327.8952 1130.3509,327.9796 1131.8682,329.1515 1131.9766,329.2346 1133.4939,330.3891 1133.6023,330.471 1135.1196,331.6083 1135.228,331.6889 1136.7453,332.8093 1136.8537,332.8887 1138.371,333.9924 1138.4794,334.0706 1140.1051,335.2349 1140.2135,335.3119 1141.8392,336.4578 1141.9476,336.5335 1143.5733,337.6612 1143.6817,337.7357 1145.3074,338.8455 1145.4158,338.9189 1147.0415,340.011 1147.1499,340.0832 1148.7756,341.1579 1148.884,341.229 1150.5097,342.2867 1150.6181,342.3567 1152.2438,343.3976 1152.3522,343.4664 1153.9779,344.4908 1154.0863,344.5585 1155.1701,345.2322 1155.2785,164.415 1156.0371,166.1446 1156.1455,166.3907 1156.9042,168.1065 1157.0126,168.3506 1157.7712,170.0527 1157.8796,170.2949 1158.6383,171.9834 1158.7467,172.2236 1159.5053,173.8987 1159.6137,174.137 1160.3724,175.7987 1160.4807,176.0352 1161.2394,177.6836 1161.3478,177.9182 1162.1065,179.5535 1162.2148,179.7862 1162.9735,181.4085 1163.0819,181.6393 1163.8406,183.2486 1163.9489,183.4776 1164.7076,185.0741 1164.816,185.3013 1165.5747,186.8851 1165.683,187.1104 1166.5501,188.9052 1166.6585,189.1285 1167.5255,190.9071 1167.6339,191.1284 1168.5009,192.8911 1168.6093,193.1105 1169.4764,194.8574 1169.5847,195.0747 1170.4518,196.806 1170.5602,197.0214 1171.4272,198.7371 1171.5356,198.9506 1172.4026,200.6509 1172.511,200.8625 1173.3781,202.5476 1173.4865,202.7573 1174.3535,204.4273 1174.4619,204.6351 1175.3289,206.2901 1175.4373,206.496 1176.3044,208.1362 1176.4127,208.3403 1177.2798,209.9658 1177.3882,210.1681 1178.2552,211.779 1178.3636,211.9794 1179.2306,213.5759 1179.339,213.7745 1180.2061,215.3567 1180.3145,215.5536 1181.1815,217.1215 1181.2899,217.3166 1182.1569,218.8706 1182.2653,219.0639 1183.2407,220.7955 1183.3491,220.987 1184.3246,222.7014 1184.4329,222.8909 1185.4084,224.5882 1185.5167,224.7759 1186.4922,226.4563 1186.6005,226.642 1187.576,228.3057 1187.6844,228.4897 1188.6598,230.1368 1188.7682,230.3189 1189.7436,231.9496 1189.852,232.1299 1190.8274,233.7444 1190.9358,233.9229 1191.9112,235.5213 1192.0196,235.698 1192.995,237.2805 1193.1034,237.4555 1194.0788,239.0222 1194.1872,239.1954 1195.1626,240.7466 1195.271,240.9181 1196.2465,242.4538 1196.3548,242.6236 1197.3303,244.144 1197.4386,244.3121 1198.5225,245.9838 1198.6308,246.1501 1199.7146,247.8035 1199.823,247.9679 1200.9068,249.6032 1201.0152,249.7659 1202.099,251.3833 1202.2074,251.5441 1203.2912,253.1438 1203.3996,253.3029 1204.4834,254.8851 1204.5918,255.0425 1205.6756,256.6074 1205.784,256.763 1206.8678,258.3108 1206.9762,258.4647 1208.06,259.9955 1208.1684,260.1477 1209.2522,261.6618 1209.3605,261.8124 1210.4444,263.3099 1210.5527,263.4588 1211.6365,264.9399 1211.7449,265.0872 1212.8287,266.5521 1212.9371,266.6978 1214.1293,268.2907 1214.2377,268.4347 1215.4299,270.0086 1215.5383,270.1508 1216.7304,271.706 1216.8388,271.8465 1218.031,273.3831 1218.1394,273.5219 1219.3316,275.0402 1219.44,275.1774 1220.6322,276.6775 1220.7405,276.8131 1221.9327,278.2953 1222.0411,278.4293 1223.2333,279.8938 1223.3417,280.0261 1224.5339,281.4732 1224.6423,281.604 1225.8344,283.0338 1225.9428,283.163 1227.135,284.5757 1227.2434,284.7034 1228.4356,286.0992 1228.544,286.2254 1229.8445,287.7292 1229.9529,287.8537 1231.2535,289.3381 1231.3619,289.461 1232.6624,290.9263 1232.7708,291.0476 1234.0714,292.4939 1234.1798,292.6136 1235.4803,294.0412 1235.5887,294.1594 1236.8893,295.5686 1236.9977,295.6852 1238.2983,297.0762 1238.4066,297.1913 1239.7072,298.5643 1239.8156,298.678 1241.1162,300.0332 1241.2245,300.1454 1242.5251,301.4832 1242.6335,301.5939 1243.9341,302.9143 1244.0424,303.0237 1245.4514,304.4349 1245.5598,304.5427 1246.9687,305.9344 1247.0771,306.0407 1248.4861,307.413 1248.5944,307.5178 1250.0034,308.871 1250.1118,308.9744 1251.5207,310.3088 1251.6291,310.4107 1253.0381,311.7265 1253.1464,311.827 1254.5554,313.1245 1254.6638,313.2237 1256.0727,314.5031 1256.1811,314.6009 1257.5901,315.8625 1257.6984,315.9589 1259.1074,317.203 1259.2158,317.2981 1260.6247,318.5249 1260.7331,318.6186 1262.2504,319.9208 1262.3588,320.0131 1263.8761,321.2959 1263.9845,321.3868 1265.5019,322.6505 1265.6102,322.74 1267.1276,323.9849 1267.236,324.0731 1268.7533,325.2994 1268.8617,325.3864 1270.379,326.5944 1270.4874,326.68 1272.0047,327.8701 1272.1131,327.9544 1273.6304,329.1268 1273.7388,329.2099 1275.2561,330.3647 1275.3645,330.4466 1276.8819,331.5842 1276.9902,331.6649 1278.5076,332.7856 1278.616,332.865 1280.1333,333.969 1280.2417,334.0473 1281.8674,335.212 1281.9758,335.289 1283.6015,336.4352 1283.7099,336.511 1285.3356,337.6389 1285.444,337.7135 1287.0697,338.8236 1287.178,338.897 1288.8038,339.9894 1288.9121,340.0617 1290.5379,341.1367 1290.6462,341.2078 1292.2719,342.2659 1292.3803,342.3358 1294.006,343.377 1294.1144,343.4459 1295.7401,344.4706 1295.8485,344.5383 1297.4742,345.5467 1297.5826,345.6134 1299.2083,346.6058 1299.3167,346.6714 1300.9424,347.648 1301.0508,347.7126 1302.6765,348.6737 1302.7849,348.7373 1304.4106,349.6832 1304.519,349.7457 1306.2531,350.7381 1306.3615,350.7996 1308.0956,351.7752 1308.2039,351.8357 1309.938,352.7949 1310.0464,352.8544 1311.7805,353.7974 1311.8889,353.8558 1313.623,354.7829 1313.7314,354.8404 1315.4655,355.7519 1315.5738,355.8084 1317.3079,356.7045 1317.4163,356.76 1319.1504,357.641 1319.2588,357.6956 1320.9929,358.5617 1321.1013,358.6154 1322.8354,359.4669 1322.9438,359.5197 1324.6778,360.3569 1324.7862,360.4088 1326.5203,361.2318 1326.6287,361.2828 1328.3628,362.092 1328.4712,362.1421 1330.2053,362.9377 1330.3137,362.987 1332.0477,363.7691 1332.1561,363.8175 1333.8902,364.5865 1333.9986,364.6341 1334.8657,365.0136 1334.974,184.1766 1335.7327,185.7683 1335.8411,185.9947 1336.5997,187.5737 1336.7081,187.7983 1337.5752,189.5876 1337.6836,189.8102 1338.5506,191.5834 1338.659,191.8041 1339.526,193.5614 1339.6344,193.78 1340.5015,195.5216 1340.6098,195.7383 1341.4769,197.4642 1341.5853,197.679 1342.4523,199.3895 1342.5607,199.6023 1343.4277,201.2975 1343.5361,201.5084 1344.4032,203.1883 1344.5116,203.3974 1345.3786,205.0623 1345.487,205.2694 1346.354,206.9194 1346.4624,207.1247 1347.3295,208.7599 1347.4378,208.9633 1348.3049,210.5838 1348.4133,210.7855 1349.2803,212.3915 1349.3887,212.5913 1350.2557,214.1829 1350.3641,214.381 1351.2312,215.9583 1351.3396,216.1546 1352.2066,217.7177 1352.315,217.9122 1353.2904,219.6542 1353.3988,219.8468 1354.3742,221.5714 1354.4826,221.762 1355.458,223.4695 1355.5664,223.6582 1356.5418,225.3487 1356.6502,225.5355 1357.6256,227.2092 1357.734,227.3942 1358.7095,229.0511 1358.8178,229.2343 1359.7933,230.8748 1359.9016,231.0561 1360.8771,232.6802 1360.9855,232.8598 1361.9609,234.4677 1362.0693,234.6455 1363.0447,236.2374 1363.1531,236.4134 1364.1285,237.9895 1364.2369,238.1638 1365.2123,239.7242 1365.3207,239.8967 1366.2961,241.4416 1366.4045,241.6124 1367.3799,243.1419 1367.4883,243.3109 1368.4637,244.8252 1368.5721,244.9926 1369.6559,246.6576 1369.7643,246.8231 1370.8481,248.4698 1370.9565,248.6336 1372.0403,250.2623 1372.1487,250.4243 1373.2325,252.0351 1373.3409,252.1953 1374.4247,253.7886 1374.5331,253.947 1375.6169,255.5228 1375.7253,255.6795 1376.8091,257.2381 1376.9175,257.3931 1378.0013,258.9345 1378.1096,259.0878 1379.1935,260.6125 1379.3018,260.7641 1380.3856,262.272 1380.494,262.422 1381.5778,263.9134 1381.6862,264.0617 1382.77,265.5368 1382.8784,265.6835 1384.0706,267.2876 1384.179,267.4325 1385.3712,269.0174 1385.4795,269.1606 1386.6717,270.7266 1386.7801,270.8681 1387.9723,272.4154 1388.0807,272.5553 1389.2729,274.0841 1389.3813,274.2222 1390.5734,275.7328 1390.6818,275.8693 1391.874,277.3619 1391.9824,277.4968 1393.1746,278.9715 1393.283,279.1048 1394.4752,280.5619 1394.5835,280.6936 1395.7757,282.1334 1395.8841,282.2635 1397.0763,283.686 1397.1847,283.8146 1398.3769,285.2202 1398.4853,285.3472 1399.7858,286.8615 1399.8942,286.9869 1401.1948,288.4817 1401.3032,288.6054 1402.6037,290.0809 1402.7121,290.203 1404.0127,291.6594 1404.1211,291.78 1405.4216,293.2175 1405.53,293.3365 1406.8306,294.7555 1406.939,294.873 1408.2395,296.2737 1408.3479,296.3896 1409.6485,297.7722 1409.7569,297.8866 1411.0574,299.2513 1411.1658,299.3643 1412.4664,300.7113 1412.5748,300.8228 1413.8753,302.1525 1413.9837,302.2626 1415.2843,303.575 1415.3927,303.6837 1416.8016,305.0864 1416.91,305.1936 1418.319,306.5768 1418.4273,306.6825 1419.8363,308.0465 1419.9447,308.1507 1421.3536,309.4957 1421.462,309.5984 1422.871,310.9248 1422.9793,311.0261 1424.3883,312.3339 1424.4967,312.4338 1425.9056,313.7235 1426.014,313.822 1427.423,315.0938 1427.5313,315.1909 1428.9403,316.445 1429.0487,316.5408 1430.4576,317.7774 1430.566,317.8718 1431.975,319.0912 1432.0833,319.1844 1433.6007,320.4787 1433.7091,320.5704 1435.2264,321.8455 1435.3348,321.9358 1436.8521,323.1919 1436.9605,323.2809 1438.4778,324.5182 1438.5862,324.6059 1440.1035,325.8248 1440.2119,325.9112 1441.7292,327.112 1441.8376,327.1971 1443.355,328.3799 1443.4633,328.4638 1444.9807,329.629 1445.0891,329.7116 1446.6064,330.8595 1446.7148,330.9409 1448.2321,332.0717 1448.3405,332.1518 1449.8578,333.2657 1449.9662,333.3447 1451.4835,334.442 1451.5919,334.5198 1453.2176,335.6775 1453.326,335.754 1454.9517,336.8933 1455.0601,336.9686 1456.6858,338.0898 1456.7942,338.1639 1458.4199,339.2673 1458.5283,339.3402 1460.154,340.426 1460.2624,340.4979 1461.8881,341.5664 1461.9965,341.6371 1463.6222,342.6887 1463.7306,342.7583 1465.3563,343.7932 1465.4647,343.8616 1467.0904,344.8801 1467.1988,344.9475 1468.8245,345.9498 1468.9329,346.016 1470.5586,347.0024 1470.6669,347.0677 1472.2927,348.0384 1472.401,348.1026 1474.0268,349.0579 1474.1351,349.1211 1475.7609,350.0612 1475.8692,350.1234 1477.6033,351.1098 1477.7117,351.1709 1479.4458,352.1406 1479.5542,352.2007 1481.2883,353.1541 1481.3967,353.2132 1483.1308,354.1505 1483.2391,354.2086 1484.9732,355.1301 1485.0816,355.1873 1486.8157,356.0932 1486.9241,356.1494 1488.6582,357.0401 1488.7666,357.0953 1490.5007,357.9709 1490.609,358.0252 1492.3431,358.8861 1492.4515,358.9395 1494.1856,359.7858 1494.294,359.8383 1496.0281,360.6704 1496.1365,360.722 1497.8706,361.5401 1497.9789,361.5908 1499.713,362.395 1499.8214,362.4449 1501.4471,363.1865 1501.5555,182.3514 1502.3142,183.9558 1502.4226,184.184 1503.1812,185.7756 1503.2896,186.0021 1504.0483,187.581 1504.1567,187.8056 1505.0237,189.5948 1505.1321,189.8175 1505.9991,191.5906 1506.1075,191.8112 1506.9746,193.5685 1507.0829,193.7872 1507.95,195.5287 1508.0584,195.7454 1508.9254,197.4712 1509.0338,197.686 1509.9008,199.3964 1510.0092,199.6093 1510.8763,201.3043 1510.9847,201.5153 1511.8517,203.1951 1511.9601,203.4042 1512.8271,205.069 1512.9355,205.2762 1513.8026,206.9261 1513.9109,207.1314 1514.778,208.7665 1514.8864,208.97 1515.7534,210.5904 1515.8618,210.7921 1516.7288,212.398 1516.8372,212.5978 1517.7043,214.1894 1517.8127,214.3874 1518.6797,215.9647 1518.7881,216.1609 1519.6551,217.7241 1519.7635,217.9186 1520.7389,219.6605 1520.8473,219.853 1521.8227,221.5776 1521.9311,221.7682 1522.9066,223.4756 1523.0149,223.6644 1523.9904,225.3548 1524.0987,225.5416 1525.0742,227.2152 1525.1826,227.4002 1526.158,229.0571 1526.2664,229.2403 1527.2418,230.8807 1527.3502,231.062 1528.3256,232.6861 1528.434,232.8656 1529.4094,234.4735 1529.5178,234.6513 1530.4932,236.2432 1530.6016,236.4192 1531.577,237.9952 1531.6854,238.1695 1532.6608,239.7298 1532.7692,239.9023 1533.7446,241.4471 1533.853,241.6179 1534.8285,243.1474 1534.9368,243.3165 1535.9123,244.8307 1536.0206,244.9981 1537.1045,246.663 1537.2128,246.8285 1538.2966,248.4752 1538.405,248.6389 1539.4888,250.2676 1539.5972,250.4295 1540.681,252.0404 1540.7894,252.2006 1541.8732,253.7937 1541.9816,253.9522 1543.0654,255.5279 1543.1738,255.6846 1544.2576,257.2431 1544.366,257.3981 1545.4498,258.9395 1545.5582,259.0928 1546.642,260.6174 1546.7504,260.769 1547.8342,262.2769 1547.9425,262.4269 1549.0264,263.9182 1549.1347,264.0665 1550.2185,265.5416 1550.3269,265.6883 1551.5191,267.2923 1551.6275,267.4372 1552.8197,269.0221 1552.9281,269.1653 1554.1203,270.7312 1554.2286,270.8727 1555.4208,272.42 1555.5292,272.5598 1556.7214,274.0886 1556.8298,274.2267 1558.022,275.7373 1558.1304,275.8738 1559.3225,277.3663 1559.4309,277.5012 1560.6231,278.9759 1560.7315,279.1091 1561.9237,280.5662 1562.0321,280.6979 1563.2243,282.1376 1563.3326,282.2677 1564.5248,283.6902 1564.6332,283.8188 1565.8254,285.2243 1565.9338,285.3514 1567.2344,286.8656 1567.3427,286.991 1568.6433,288.4857 1568.7517,288.6095 1570.0523,290.0848 1570.1606,290.207 1571.4612,291.6633 1571.5696,291.7839 1572.8702,293.2214 1572.9785,293.3404 1574.2791,294.7594 1574.3875,294.8768 1575.6881,296.2774 1575.7964,296.3934 1577.097,297.7759 1577.2054,297.8903 1578.506,299.255 1578.6143,299.368 1579.9149,300.715 1580.0233,300.8265 1581.3239,302.1561 1581.4323,302.2662 1582.7328,303.5786 1582.8412,303.6872 1584.2502,305.0899 1584.3585,305.1971 1585.7675,306.5803 1585.8759,306.6859 1587.2848,308.0499 1587.3932,308.1541 1588.8022,309.499 1588.9105,309.6018 1590.3195,310.9281 1590.4279,311.0294 1591.8368,312.3372 1591.9452,312.4371 1593.3542,313.7267 1593.4625,313.8252 1594.8715,315.0969 1594.9799,315.1941 1596.3888,316.4481 1596.4972,316.5439 1597.9062,317.7804 1598.0145,317.8749 1599.4235,319.0943 1599.5319,319.1874 1601.0492,320.4817 1601.1576,320.5734 1602.6749,321.8484 1602.7833,321.9388 1604.3006,323.1948 1604.409,323.2838 1605.9263,324.5211 1606.0347,324.6088 1607.5521,325.8277 1607.6604,325.9141 1609.1778,327.1148 1609.2862,327.1999 1610.8035,328.3827 1610.9119,328.4665 1612.4292,329.6317 1612.5376,329.7143 1614.0549,330.8622 1614.1633,330.9435 1615.6806,332.0743 1615.789,332.1544 1617.3063,333.2683 1617.4147,333.3473 1618.9321,334.4446 1619.0404,334.5224 1620.6661,335.68 1620.7745,335.7565 1622.4002,336.8957 1622.5086,336.9711 1624.1343,338.0922 1624.2427,338.1663 1625.8684,339.2696 1625.9768,339.3426 1627.6025,340.4284 1627.7109,340.5002 1629.3366,341.5687 1629.445,341.6394 1631.0707,342.691 1631.1791,342.7605 1632.8048,343.7954 1632.9132,343.8638 1634.5389,344.8823 1634.6473,344.9496 1636.273,345.9519 1636.3814,346.0182 1638.0071,347.0046 1638.1155,347.0698 1639.7412,348.0405 1639.8496,348.1047 1641.4753,349.0599 1641.5837,349.1231 1643.2094,350.0632 1643.3178,350.1254 1645.0519,351.1118 1645.1602,351.1729 1646.8943,352.1426 1647.0027,352.2027 1648.7368,353.1561 1648.8452,353.2151 1650.5793,354.1524 1650.6877,354.2105 1652.4218,355.132 1652.5301,355.1891 1654.2642,356.0951 1654.3726,356.1512 1656.1067,357.0419 1656.2151,357.0971 1657.9492,357.9727 1658.0576,358.027 1659.2498,358.6203 1659.3581,177.7897 1660.1168,179.4259 1660.2252,179.6587 1660.9839,181.2819 1661.0922,181.5129 1661.8509,183.1231 1661.9593,183.3522 1662.7179,184.9496 1662.8263,185.1769 1663.585,186.7615 1663.6934,186.987 1664.5604,188.7827 1664.6688,189.0062 1665.5358,190.7858 1665.6442,191.0072 1666.5113,192.7709 1666.6197,192.9903 1667.4867,194.7382 1667.5951,194.9557 1668.4621,196.6879 1668.5705,196.9034 1669.4376,198.6201 1669.5459,198.8337 1670.413,200.5349 1670.5214,200.7466 1671.3884,202.4326 1671.4968,202.6424 1672.3638,204.3133 1672.4722,204.5213 1673.3393,206.1772 1673.4477,206.3832 1674.3147,208.0243 1674.4231,208.2285 1675.2901,209.8549 1675.3985,210.0573 1676.2656,211.6691 1676.3739,211.8696 1677.241,213.467 1677.3494,213.6657 1678.2164,215.2487 1678.3248,215.4457 1679.1918,217.0146 1679.3002,217.2098 1680.1673,218.7645 1680.2757,218.958 1681.2511,220.6906 1681.3595,220.8821 1682.3349,222.5974 1682.4433,222.7871 1683.4187,224.4853 1683.5271,224.6731 1684.5025,226.3544 1684.6109,226.5403 1685.5863,228.2049 1685.6947,228.3889 1686.6701,230.0369 1686.7785,230.2191 1687.7539,231.8508 1687.8623,232.0312 1688.8377,233.6465 1688.9461,233.8251 1689.9216,235.4244 1690.0299,235.6012 1691.0054,237.1846 1691.1137,237.3597 1692.0892,238.9273 1692.1976,239.1006 1693.173,240.6526 1693.2814,240.8242 1694.2568,242.3607 1694.3652,242.5306 1695.3406,244.0519 1695.449,244.22 1696.5328,245.8927 1696.6412,246.059 1697.725,247.7133 1697.8334,247.8778 1698.9172,249.5141 1699.0256,249.6768 1700.1094,251.2951 1700.2177,251.456 1701.3016,253.0566 1701.4099,253.2158 1702.4937,254.7989 1702.6021,254.9563 1703.6859,256.522 1703.7943,256.6778 1704.8781,258.2264 1704.9865,258.3804 1706.0703,259.912 1706.1787,260.0644 1707.2625,261.5792 1707.3709,261.7299 1708.4547,263.2282 1708.5631,263.3772 1709.6469,264.8591 1709.7553,265.0065 1710.8391,266.4722 1710.9475,266.618 1712.1396,268.2118 1712.248,268.3558 1713.4402,269.9306 1713.5486,270.0729 1714.7408,271.6289 1714.8492,271.7695 1716.0414,273.307 1716.1497,273.4459 1717.3419,274.965 1717.4503,275.1023 1718.6425,276.6032 1718.7509,276.7388 1719.9431,278.2219 1720.0515,278.3559 1721.2436,279.8212 1721.352,279.9537 1722.5442,281.4015 1722.6526,281.5324 1723.8448,282.9629 1723.9532,283.0922 1725.1454,284.5057 1725.2537,284.6334 1726.4459,286.0301 1726.5543,286.1563 1727.8549,287.661 1727.9633,287.7855 1729.2638,289.2708 1729.3722,289.3937 1730.6728,290.8598 1730.7812,290.9811 1732.0817,292.4282 1732.1901,292.548 1733.4907,293.9764 1733.5991,294.0947 1734.8996,295.5046 1735.008,295.6213 1736.3086,297.0131 1736.417,297.1283 1737.7175,298.502 1737.8259,298.6157 1739.1265,299.9717 1739.2349,300.084 1740.5354,301.4224 1740.6438,301.5332 1741.9444,302.8544 1742.0528,302.9638 1743.4617,304.3758 1743.5701,304.4837 1744.9791,305.8761 1745.0874,305.9825 1746.4964,307.3555 1746.6048,307.4604 1748.0137,308.8143 1748.1221,308.9178 1749.5311,310.2529 1749.6394,310.3549 1751.0484,311.6714 1751.1568,311.772 1752.5657,313.0702 1752.6741,313.1694 1754.0831,314.4495 1754.1914,314.5473 1755.6004,315.8097 1755.7088,315.9061 1757.1177,317.1509 1757.2261,317.246 1758.6351,318.4735 1758.7434,318.5673 1760.2608,319.8702 1760.3692,319.9625 1761.8865,321.246 1761.9949,321.337 1763.5122,322.6013 1763.6206,322.691 1765.1379,323.9365 1765.2463,324.0248 1766.7636,325.2518 1766.872,325.3388 1768.3893,326.5474 1768.4977,326.6331 1770.0151,327.8238 1770.1234,327.9082 1771.6408,329.0812 1771.7492,329.1643 1773.2665,330.3198 1773.3749,330.4017 1774.8922,331.54 1775.0006,331.6207 1776.5179,332.742 1776.6263,332.8215 1778.1436,333.9261 1778.252,334.0044 1779.7693,335.0926 1779.8777,335.1697 1781.5034,336.3177 1781.6118,336.3936 1783.2375,337.5233 1783.3459,337.598 1784.9716,338.7098 1785.08,338.7833 1786.7057,339.8775 1786.8141,339.9498 1788.4398,341.0266 1788.5482,341.0978 1790.1739,342.1574 1790.2823,342.2275 1791.908,343.2703 1792.0164,343.3393 1793.6421,344.3655 1793.7505,344.4334 1795.3762,345.4434 1795.4846,345.5102 1797.1103,346.5041 1797.2187,346.5698 1798.8444,347.5479 1798.9528,347.6126 1800.5785,348.5752 1800.6869,348.6389 1802.3126,349.5862 1802.421,349.6489 1804.1551,350.6428 1804.2634,350.7044 1805.9975,351.6815 1806.1059,351.7421 1807.84,352.7028 1807.9484,352.7623 1809.6825,353.7068 1809.7909,353.7653 1811.525,354.6939 1811.6333,354.7514 1813.3674,355.6643 1813.4758,355.7209 1815.2099,356.6184 1815.3183,356.674 1817.0524,357.5564 1817.1608,357.6111 1818.8949,358.4785 1819.0032,358.5323 1820.7373,359.3852 1820.8457,359.438 1822.5798,360.2765 1822.6882,360.3284 1824.4223,361.1528 1824.5307,361.2038 1826.2648,362.0143 1826.3731,362.0645 1828.1072,362.8613 1828.2156,362.9106 1829.9497,363.694 1830.0581,363.7425 1831.7922,364.5126 1831.9006,364.5603 1833.6347,365.3175 1833.743,365.3644 1835.4771,366.1087 1835.5855,366.1549 1837.428,366.932 1837.5364,366.9773 1838.9453,367.5622 1839.0537,186.7226 1839.9208,188.5204 1840.0291,188.7442 1840.8962,190.5259 1841.0046,190.7476 1841.8716,192.5133 1841.98,192.733 1842.847,194.4829 1842.9554,194.7007 1843.8225,196.4349 1843.9308,196.6507 1844.7979,198.3693 1844.9063,198.5832 1845.7733,200.2865 1845.8817,200.4984 1846.7488,202.1864 1846.8571,202.3964 1847.7242,204.0693 1847.8326,204.2775 1848.6996,205.9353 1848.808,206.1416 1849.675,207.7846 1849.7834,207.9891 1850.6505,209.6174 1850.7588,209.82 1851.6259,211.4337 1851.7343,211.6345 1852.6013,213.2337 1852.7097,213.4327 1853.5768,215.0175 1853.6851,215.2148 1854.5522,216.7854 1854.6606,216.9809 1855.5276,218.5375 1855.636,218.7312 1856.6114,220.4658 1856.7198,220.6575 1857.6952,222.3749 1857.8036,222.5647 1858.779,224.265 1858.8874,224.4529 1859.8628,226.1362 1859.9712,226.3223 1860.9467,227.9889 1861.055,228.1731 1862.0305,229.8231 1862.1388,230.0055 1863.1143,231.6391 1863.2227,231.8196 1864.1981,233.4369 1864.3065,233.6157 1865.2819,235.2169 1865.3903,235.3939 1866.3657,236.9791 1866.4741,237.1544 1867.4495,238.7239 1867.5579,238.8974 1868.5333,240.4512 1868.6417,240.623 1869.6171,242.1613 1869.7255,242.3314 1870.7009,243.8545 1870.8093,244.0228 1871.8931,245.6974 1872.0015,245.864 1873.0853,247.5202 1873.1937,247.6849 1874.2775,249.3231 1874.3859,249.486 1875.4697,251.1062 1875.5781,251.2673 1876.6619,252.8698 1876.7703,253.0291 1877.8541,254.6141 1877.9625,254.7717 1879.0463,256.3393 1879.1546,256.4952 1880.2385,258.0456 1880.3468,258.1998 1881.4306,259.7332 1881.539,259.8858 1882.6228,261.4024 1882.7312,261.5533 1883.815,263.0533 1883.9234,263.2025 1885.0072,264.6862 1885.1156,264.8337 1886.1994,266.3011 1886.3078,266.4471 1887.5,268.0427 1887.6084,268.1869 1888.8006,269.7636 1888.9089,269.9061 1890.1011,271.4639 1890.2095,271.6047 1891.4017,273.1439 1891.5101,273.283 1892.7023,274.8039 1892.8106,274.9413 1894.0028,276.444 1894.1112,276.5798 1895.3034,278.0646 1895.4118,278.1988 1896.604,279.6658 1896.7124,279.7984 1897.9045,281.248 1898.0129,281.3789 1899.2051,282.8112 1899.3135,282.9406 1900.5057,284.3558 1900.6141,284.4837 1901.8063,285.882 1901.9146,286.0083 1903.2152,287.5147 1903.3236,287.6395 1904.6242,289.1264 1904.7325,289.2495 1906.0331,290.7173 1906.1415,290.8388 1907.4421,292.2876 1907.5505,292.4076 1908.851,293.8376 1908.9594,293.956 1910.26,295.3676 1910.3684,295.4845 1911.6689,296.8778 1911.7773,296.9932 1913.0779,298.3685 1913.1863,298.4824 1914.4868,299.84 1914.5952,299.9523 1915.8958,301.2924 1916.0042,301.4033 1917.3047,302.726 1917.4131,302.8355 1918.8221,304.2492 1918.9304,304.3572 1920.3394,305.7513 1920.4478,305.8578 1921.8567,307.2324 1921.9651,307.3374 1923.3741,308.693 1923.4824,308.7965 1924.8914,310.1332 1924.9998,310.2353 1926.4087,311.5534 1926.5171,311.6541 1927.9261,312.9538 1928.0344,313.0531 1929.4434,314.3348 1929.5518,314.4327 1930.9607,315.6965 1931.0691,315.7931 1932.4781,317.0393 1932.5864,317.1345 1933.9954,318.3635 1934.1038,318.4573 1935.5127,319.6692 1935.6211,319.7618 1937.1384,321.048 1937.2468,321.1392 1938.7642,322.4063 1938.8725,322.4961 1940.3899,323.7444 1940.4983,323.8329 1942.0156,325.0625 1942.124,325.1497 1943.6413,326.361 1943.7497,326.4469 1945.267,327.6402 1945.3754,327.7248 1946.8927,328.9003 1947.0011,328.9836 1948.5184,330.1416 1948.6268,330.2237 1950.1442,331.3644 1950.2525,331.4453 1951.7699,332.5691 1951.8782,332.6487 1953.3956,333.7557 1953.504,333.8342 1955.0213,334.9247 1955.1297,335.0021 1956.7554,336.1525 1956.8638,336.2286 1958.4895,337.3608 1958.5979,337.4356 1960.2236,338.5498 1960.332,338.6235 1961.9577,339.72 1962.0661,339.7925 1963.6918,340.8716 1963.8002,340.943 1965.4259,342.0049 1965.5342,342.0752 1967.16,343.1202 1967.2683,343.1894 1968.8941,344.2179 1969.0024,344.2859 1970.6281,345.298 1970.7365,345.365 1972.3622,346.361 1972.4706,346.4269 1974.0963,347.4072 1974.2047,347.472 1975.8304,348.4367 1975.9388,348.5005 1977.5645,349.4499 1977.6729,349.5127 1979.407,350.5088 1979.5154,350.5705 1981.2495,351.5498 1981.3579,351.6105 1983.092,352.5732 1983.2003,352.6329 1984.9344,353.5795 1985.0428,353.6381 1986.7769,354.5687 1986.8853,354.6264 1988.6194,355.5412 1988.7278,355.5979 1990.4619,356.4974 1990.5702,356.5531 1992.3043,357.4374 1992.4127,357.4922 1994.1468,358.3616 1994.2552,358.4154 1995.9893,359.2702 1996.0977,359.3231 1997.8318,360.1634 1997.9401,360.2155 1999.6742,361.0416 1999.7826,361.0928 2001.5167,361.905 2001.6251,361.9553 2003.3592,362.7538 2003.4676,362.8033 2005.2017,363.5883 2005.31,363.637 2007.0441,364.4088 2007.1525,364.4566 2008.8866,365.2154 2008.995,365.2624 2010.7291,366.0084 2010.8375,366.0546 2011.0542,366.1469 2011.1626,185.3088 2011.9213,186.8925 2012.0297,187.1179 2012.8967,188.9125 2013.0051,189.1359 2013.8721,190.9144 2013.9805,191.1358 2014.8476,192.8984 2014.9559,193.1177 2015.823,194.8645 2015.9314,195.0819 2016.7984,196.8131 2016.9068,197.0285 2017.7739,198.7442 2017.8822,198.9577 2018.7493,200.6579 2018.8577,200.8695 2019.7247,202.5545 2019.8331,202.7642 2020.7001,204.4341 2020.8085,204.6419 2021.6756,206.2969 2021.7839,206.5028 2022.651,208.143 2022.7594,208.3471 2023.6264,209.9725 2023.7348,210.1747 2024.6018,211.7856 2024.7102,211.986 2025.5773,213.5824 2025.6857,213.7811 2026.5527,215.3632 2026.6611,215.5601 2027.5281,217.128 2027.6365,217.3231 2028.5036,218.877 2028.6119,219.0703 2029.5874,220.8019 2029.6958,220.9933 2030.6712,222.7076 2030.7796,222.8972 2031.755,224.5944 2031.8634,224.782 2032.8388,226.4624 2032.9472,226.6482 2033.9226,228.3118 2034.031,228.4957 2035.0064,230.1428 2035.1148,230.3249 2036.0902,231.9556 2036.1986,232.1358 2037.174,233.7503 2037.2824,233.9288 2038.2578,235.5271 2038.3662,235.7038 2039.3417,237.2863 2039.45,237.4613 2040.4255,239.028 2040.5338,239.2012 2041.5093,240.7523 2041.6177,240.9237 2042.5931,242.4594 2042.7015,242.6292 2043.6769,244.1496 2043.7853,244.3177 2044.8691,245.9893 2044.9775,246.1555 2046.0613,247.8089 2046.1697,247.9733 2047.2535,249.6086 2047.3618,249.7712 2048.4457,251.3886 2048.554,251.5494 2049.6378,253.1491 2049.7462,253.3082 2050.83,254.8903 2050.9384,255.0477 2052.0222,256.6125 2052.1306,256.7681 2053.2144,258.3158 2053.3228,258.4698 2054.4066,260.0005 2054.515,260.1528 2055.5988,261.6668 2055.7072,261.8173 2056.791,263.3148 2056.8994,263.4637 2057.9832,264.9448 2058.0916,265.0921 2059.1754,266.5569 2059.2837,266.7026 2060.4759,268.2955 2060.5843,268.4394 2061.7765,270.0133 2061.8849,270.1555 2063.0771,271.7106 2063.1855,271.8511 2064.3776,273.3877 2064.486,273.5265 2065.6782,275.0447 2065.7866,275.1819 2066.9788,276.682 2067.0872,276.8176 2068.2794,278.2997 2068.3877,278.4337 2069.5799,279.8982 2069.6883,280.0305 2070.8805,281.4775 2070.9889,281.6083 2072.1811,283.038 2072.2895,283.1672 2073.4816,284.5799 2073.59,284.7076 2074.7822,286.1034 2074.8906,286.2295 2076.1912,287.7333 2076.2995,287.8578 2077.6001,289.3422 2077.7085,289.4651 2079.0091,290.9303 2079.1175,291.0516 2080.418,292.4978 2080.5264,292.6176 2081.827,294.0451 2081.9354,294.1633 2083.2359,295.5724 2083.3443,295.6891 2084.6449,297.08 2084.7533,297.1952 2086.0538,298.5681 2086.1622,298.6817 2087.4628,300.0369 2087.5712,300.1491 2088.8717,301.4868 2088.9801,301.5976 2090.2807,302.918 2090.3891,303.0273 2091.798,304.4385 2091.9064,304.5463 2093.3154,305.9379 2093.4237,306.0442 2094.8327,307.4165 2094.9411,307.5213 2096.35,308.8744 2096.4584,308.9778 2097.8674,310.3121 2097.9757,310.4141 2099.3847,311.7298 2099.4931,311.8303 2100.902,313.1278 2101.0104,313.2269 2102.4194,314.5064 2102.5277,314.6041 2103.9367,315.8657 2104.0451,315.9621 2105.454,317.2062 2105.5624,317.3012 2106.9714,318.528 2107.0797,318.6217 2108.5971,319.9238 2108.7054,320.0161 2110.2228,321.2989 2110.3312,321.3898 2111.8485,322.6534 2111.9569,322.743 2113.4742,323.9878 2113.5826,324.0761 2115.0999,325.3023 2115.2083,325.3892 2116.7256,326.5972 2116.834,326.6829 2118.3513,327.8729 2118.4597,327.9572 2119.9771,329.1295 2120.0854,329.2126 2121.6028,330.3674 2121.7112,330.4493 2123.2285,331.5869 2123.3369,331.6675 2124.8542,332.7882 2124.9626,332.8677 2126.4799,333.9716 2126.5883,334.0499 2128.214,335.2145 2128.3224,335.2915 2129.9481,336.4377 2130.0565,336.5135 2131.6822,337.6414 2131.7906,337.716 2133.4163,338.826 2133.5247,338.8994 2135.1504,339.9918 2135.2588,340.0641 2136.8845,341.1391 2136.9929,341.2102 2138.6186,342.2682 2138.727,342.3381 2140.3527,343.3793 2140.4611,343.4482 2142.0868,344.4728 2142.1952,344.5406 2143.8209,345.5489 2143.9292,345.6156 2145.555,346.608 2145.6633,346.6736 2147.2891,347.6502 2147.3974,347.7148 2149.0231,348.6758 2149.1315,348.7394 2150.7572,349.6852 2150.8656,349.7478 2151.9494,350.3699 2152.0578,169.5475 2152.8165,171.2413 2152.9249,171.4822 2153.6835,173.1625 2153.7919,173.4016 2154.5506,175.0684 2154.659,175.3056 2155.4176,176.9591 2155.526,177.1944 2156.2847,178.8348 2156.3931,179.0682 2157.1517,180.6954 2157.2601,180.927 2158.0188,182.5413 2158.1271,182.771 2158.8858,184.3724 2158.9942,184.6003 2159.7529,186.189 2159.8612,186.415 2160.7283,188.2153 2160.8367,188.4393 2161.7037,190.2234 2161.8121,190.4455 2162.6791,192.2136 2162.7875,192.4336 2163.6546,194.1859 2163.763,194.4039 2164.63,196.1405 2164.7384,196.3566 2165.6054,198.0776 2165.7138,198.2918 2166.5809,199.9974 2166.6892,200.2096 2167.5563,201.8999 2167.6647,202.1102 2168.5317,203.7854 2168.6401,203.9938 2169.5071,205.6539 2169.6155,205.8605 2170.4826,207.5058 2170.591,207.7105 2171.458,209.341 2171.5664,209.5439 2172.4334,211.1598 2172.5418,211.3608 2173.4089,212.9622 2173.5172,213.1615 2174.3843,214.7485 2174.4927,214.946 2175.3597,216.5188 2175.4681,216.7146 2176.3351,218.2733 2176.4435,218.4672 2177.419,220.2042 2177.5273,220.3962 2178.5028,222.1159 2178.6111,222.306 2179.5866,224.0086 2179.695,224.1968 2180.6704,225.8824 2180.7788,226.0688 2181.7542,227.7376 2181.8626,227.9221 2182.838,229.5743 2182.9464,229.757 2183.9218,231.3927 2184.0302,231.5736 2185.0056,233.193 2185.114,233.3721 2186.0894,234.9754 2186.1978,235.1527 2187.1732,236.7401 2187.2816,236.9156 2188.257,238.4872 2188.3654,238.6609 2189.3409,240.2169 2189.4492,240.3889 2190.4247,241.9294 2190.533,242.0997 2191.5085,243.6248 2191.6169,243.7934 2192.7007,245.4703 2192.809,245.637 2193.8929,247.2956 2194.0012,247.4605 2195.085,249.1009 2195.1934,249.264 2196.2772,250.8864 2196.3856,251.0478 2197.4694,252.6524 2197.5778,252.812 2198.6616,254.3991 2198.77,254.5569 2199.8538,256.1266 2199.9622,256.2827 2201.046,257.8353 2201.1544,257.9897 2202.2382,259.5252 2202.3466,259.6779 2203.4304,261.1967 2203.5388,261.3477 2204.6226,262.8498 2204.7309,262.9992 2205.8148,264.4849 2205.9231,264.6327 2207.0069,266.1021 2207.1153,266.2482 2208.3075,267.8461 2208.4159,267.9905 2209.6081,269.5693 2209.7165,269.7119 2210.9087,271.2719 2211.017,271.4128 2212.2092,272.9542 2212.3176,273.0935 2213.5098,274.6164 2213.6182,274.754 2214.8104,276.2588 2214.9188,276.3948 2216.1109,277.8816 2216.2193,278.0159 2217.4115,279.485 2217.5199,279.6178 2218.7121,281.0693 2218.8205,281.2005 2220.0127,282.6347 2220.121,282.7643 2221.3132,284.1814 2221.4216,284.3094 2222.6138,285.7096 2222.7222,285.8361 2224.0227,287.3446 2224.1311,287.4695 2225.4317,288.9585 2225.5401,289.0818 2226.8407,290.5515 2226.949,290.6732 2228.2496,292.124 2228.358,292.2441 2229.6586,293.6761 2229.7669,293.7947 2231.0675,295.2082 2231.1759,295.3252 2232.4765,296.7205 2232.5848,296.836 2233.8854,298.2132 2233.9938,298.3272 2235.2944,299.6866 2235.4027,299.7992 2236.7033,301.141 2236.8117,301.2521 2238.1123,302.5767 2238.2206,302.6863 2239.6296,304.102 2239.738,304.2101 2241.1469,305.606 2241.2553,305.7127 2242.6643,307.0892 2242.7726,307.1943 2244.1816,308.5517 2244.29,308.6554 2245.6989,309.9939 2245.8073,310.0962 2247.2163,311.416 2247.3246,311.5169 2248.7336,312.8184 2248.842,312.9178 2250.2509,314.2012 2250.3593,314.2993 2251.7683,315.5648 2251.8766,315.6615 2253.2856,316.9095 2253.394,317.0048 2254.8029,318.2354 2254.9113,318.3294 2256.3203,319.5429 2256.4286,319.6356 2257.946,320.9236 2258.0544,321.0149 2259.5717,322.2838 2259.6801,322.3737 2261.1974,323.6237 2261.3058,323.7123 2262.8231,324.9436 2262.9315,325.0309 2264.4488,326.2439 2264.5572,326.3299 2266.0745,327.5248 2266.1829,327.6095 2267.7003,328.7866 2267.8086,328.87 2269.326,330.0296 2269.4344,330.1118 2270.9517,331.2541 2271.0601,331.3351 2272.5774,332.4604 2272.6858,332.5402 2274.2031,333.6487 2274.3115,333.7273 2275.8288,334.8193 2275.9372,334.8967 2277.5629,336.0487 2277.6713,336.1249 2279.297,337.2586 2279.4054,337.3336 2281.0311,338.4493 2281.1395,338.5231 2282.7652,339.6211 2282.8736,339.6937 2284.4993,340.7743 2284.6077,340.8457 2286.2334,341.9091 2286.3418,341.9795 2287.9675,343.026 2288.0759,343.0952 2289.7016,344.1251 2289.81,344.1932 2291.4357,345.2067 2291.5441,345.2738 2293.1698,346.2712 2293.2782,346.3372 2294.9039,347.3188 2295.0123,347.3837 2296.638,348.3497 2296.7463,348.4136 2298.3721,349.3643 2298.4804,349.4271 2300.1062,350.3627 2300.2145,350.4246 2301.2983,351.0399 2301.4067,170.2169 2302.1654,171.906 2302.2738,172.1463 2303.0324,173.8219 2303.1408,174.0603 2303.8995,175.7226 2304.0079,175.9591 2304.7665,177.6081 2304.8749,177.8427 2305.6336,179.4785 2305.742,179.7113 2306.5006,181.3341 2306.609,181.565 2307.3677,183.1749 2307.4761,183.4039 2308.2347,185.0009 2308.3431,185.2282 2309.1018,186.8125 2309.2102,187.0379 2310.0772,188.8332 2310.1856,189.0566 2311.0526,190.8358 2311.161,191.0572 2312.0281,192.8205 2312.1364,193.0399 2313.0035,194.7873 2313.1119,195.0048 2313.9789,196.7366 2314.0873,196.9521 2314.9543,198.6683 2315.0627,198.8819 2315.9298,200.5828 2316.0382,200.7944 2316.9052,202.48 2317.0136,202.6898 2317.8806,204.3603 2317.989,204.5682 2318.8561,206.2237 2318.9644,206.4298 2319.8315,208.0705 2319.9399,208.2746 2320.8069,209.9006 2320.9153,210.103 2321.7823,211.7144 2321.8907,211.9149 2322.7578,213.5119 2322.8662,213.7106 2323.7332,215.2933 2323.8416,215.4902 2324.7086,217.0587 2324.817,217.2538 2325.6841,218.8083 2325.7924,219.0017 2326.7679,220.7339 2326.8762,220.9254 2327.8517,222.6403 2327.9601,222.8299 2328.9355,224.5277 2329.0439,224.7155 2330.0193,226.3964 2330.1277,226.5823 2331.1031,228.2465 2331.2115,228.4305 2332.1869,230.0781 2332.2953,230.2603 2333.2707,231.8915 2333.3791,232.0719 2334.3545,233.6869 2334.4629,233.8654 2335.4383,235.4644 2335.5467,235.6411 2336.5221,237.2242 2336.6305,237.3992 2337.606,238.9664 2337.7143,239.1397 2338.6898,240.6913 2338.7981,240.8629 2339.7736,242.3991 2339.882,242.5689 2340.8574,244.0899 2340.9658,244.258 2342.0496,245.9302 2342.158,246.0966 2343.2418,247.7505 2343.3501,247.915 2344.434,249.5508 2344.5423,249.7135 2345.6261,251.3314 2345.7345,251.4923 2346.8183,253.0926 2346.9267,253.2517 2348.0105,254.8344 2348.1189,254.9918 2349.2027,256.5572 2349.3111,256.7129 2350.3949,258.2612 2350.5033,258.4151 2351.5871,259.9464 2351.6955,260.0987 2352.7793,261.6133 2352.8877,261.7639 2353.9715,263.2619 2354.0799,263.4109 2355.1637,264.8924 2355.272,265.0398 2356.3559,266.5051 2356.4642,266.6509 2357.6564,268.2443 2357.7648,268.3883 2358.957,269.9628 2359.0654,270.105 2360.2576,271.6607 2360.3659,271.8013 2361.5581,273.3384 2361.6665,273.4773 2362.8587,274.996 2362.9671,275.1332 2364.1593,276.6339 2364.2677,276.7695 2365.4599,278.2522 2365.5682,278.3862 2366.7604,279.8512 2366.8688,279.9836 2368.061,281.4311 2368.1694,281.5619 2369.3616,282.9921 2369.4699,283.1214 2370.6621,284.5346 2370.7705,284.6623 2371.9627,286.0586 2372.0711,286.1848 2373.3717,287.6891 2373.48,287.8137 2374.7806,289.2985 2374.889,289.4215 2376.1896,290.8872 2376.2979,291.0085 2377.5985,292.4553 2377.7069,292.5751 2379.0075,294.0031 2379.1158,294.1214 2380.4164,295.531 2380.5248,295.6477 2381.8254,297.0391 2381.9338,297.1543 2383.2343,298.5277 2383.3427,298.6414 2384.6433,299.9971 2384.7517,300.1093 2386.0522,301.4475 2386.1606,301.5583 2387.4612,302.8791 2387.5696,302.9885 2388.9785,304.4002 2389.0869,304.508 2390.4958,305.9001 2390.6042,306.0065 2392.0132,307.3792 2392.1216,307.4841 2393.5305,308.8377 2393.6389,308.9411 2395.0478,310.2759 2395.1562,310.3779 2396.5652,311.6941 2396.6736,311.7947 2398.0825,313.0926 2398.1909,313.1918 2399.5998,314.4716 2399.7082,314.5694 2401.1172,315.8315 2401.2256,315.9279 2402.6345,317.1724 2402.7429,317.2675 2404.1518,318.4947 2404.2602,318.5884 2405.7776,319.891 2405.8859,319.9834 2407.4033,321.2666 2407.5117,321.3575 2409.029,322.6216 2409.1374,322.7112 2410.6547,323.9565 2410.7631,324.0447 2412.2804,325.2714 2412.3888,325.3584 2413.9061,326.5668 2414.0145,326.6525 2415.5318,327.8429 2415.6402,327.9273 2417.1576,329.1 2417.2659,329.1831 2418.7833,330.3383 2418.8916,330.4202 2420.409,331.5582 2420.5174,331.6389 2422.0347,332.76 2422.1431,332.8395 2423.6604,333.9438 2423.7688,334.0221 2425.2861,335.11 2425.3945,335.1872 2427.0202,336.3348 2427.1286,336.4107 2428.7543,337.5402 2428.8627,337.6149 2430.4884,338.7264 2430.5968,338.7999 2432.2225,339.8938 2432.3309,339.9661 2433.9566,341.0426 2434.065,341.1138 2435.6907,342.1732 2435.7991,342.2433 2437.4248,343.2859 2437.5332,343.3548 2439.1589,344.3809 2439.2673,344.4487 2440.893,345.4585 2441.0014,345.5252 2442.6271,346.5189 2442.7355,346.5846 2444.3612,347.5626 2444.4695,347.6272 2446.0953,348.5896 2446.2036,348.6533 2447.8294,349.6004 2447.9377,349.663 2449.6718,350.6567 2449.7802,350.7183 2451.5143,351.6952 2451.6227,351.7558 2453.3568,352.7162 2453.4652,352.7758 2455.1993,353.72 2455.3076,353.7785 2457.0417,354.7069 2457.1501,354.7644 2458.8842,355.6771 2458.9926,355.7337 2460.7267,356.631 2460.8351,356.6866 2462.5692,357.5687 2462.6775,357.6234 2464.4116,358.4907 2464.52,358.5444 2466.2541,359.3971 2466.3625,359.4499 2467.7714,360.1321 2467.8798,360.1842" style="fill:none;stroke:black;stroke-width:2;stroke-linejoin:bevel" />
  <text dominant-baseline="hanging" text-anchor="middle" transform="translate(1261.7505,8)" font-family="Segoe UI" font-size="18" font-weight="700" fill="black">Temperature</text>
  <polygon points="31.501,29.0795 2492,29.0795 2492,370.947 31.501,370.947" style="fill:none;stroke:black;stroke-width:1" />
</svg>